<?xml version="1.0" encoding="utf-8"?>
<!-- Generator: Adobe Illustrator 20.0.0, SVG Export Plug-In . SVG Version: 6.00 Build 0)  -->
<svg version="1.1" id="Layer_1" xmlns="http://www.w3.org/2000/svg" xmlns:xlink="http://www.w3.org/1999/xlink" x="0px" y="0px"
	 viewBox="0 0 1360 271" style="enable-background:new 0 0 1360 271;" xml:space="preserve">
<style type="text/css">
	.st0{clip-path:url(#SVGID_2_);}
	.st1{clip-path:url(#SVGID_4_);fill:#231F20;}
	.st2{clip-path:url(#SVGID_8_);}
	.st3{fill:url(#SVGID_9_);}
	.st4{fill:url(#SVGID_10_);}
</style>
<g>
	<g>
		<g>
			<defs>
				<rect id="SVGID_1_" x="24.1" y="19.1" width="1310.9" height="240.1"/>
			</defs>
			<clipPath id="SVGID_2_">
				<use xlink:href="#SVGID_1_"  style="overflow:visible;"/>
			</clipPath>
			<g class="st0">
				<g>
					<g>
						<defs>
							<rect id="SVGID_3_" x="23.9" y="18.6" width="1311.2" height="240.5"/>
						</defs>
						<clipPath id="SVGID_4_">
							<use xlink:href="#SVGID_3_"  style="overflow:visible;"/>
						</clipPath>
						<path class="st1" d="M417.8,241.5H299.4c-4,0-6.9-3-6.9-6.9v-14.5c-0.1-3.5,1.1-5.1,3.2-7.8L390,102.7h-92.4
							c-4,0-6.9-3-6.9-6.9V85.5c0-4,3-6.9,6.9-6.9h119.6c4,0,6.9,3,6.9,6.9v14.8c0.1,2.7-0.9,4.9-3,7.3l-94.5,109.8h91.2
							c4,0,6.9,3,6.9,6.9v10.2C424.8,238.5,421.8,241.5,417.8,241.5 M651.3,244.5L651.3,244.5c8.5-0.2,14.8-1.8,17.2-4.6
							c0.9-1,1.3-2.1,1.2-3.2c-0.1-0.9-0.1-0.9-2.4-11.8l-0.1-0.3c-0.5-2.9-2.5-4.1-4.2-4.1c-0.2,0-0.3,0-0.2,0c0,0-2.1-0.1-4.2-0.1
							l0,0c-6-0.2-11.1-1.1-11.2-9.9V25.4c0-3.1-1.9-6.3-5.4-6.3h-1.1l-16.5,4.2c-2.8,0.3-5.7,2.3-5.6,6v181.8
							C618.8,232.6,630.3,244.5,651.3,244.5L651.3,244.5z M985.6,241.5h-14.8c-4,0-6.9-3-6.9-6.9V123.2
							c-0.3-18.8-5.9-24.1-26.2-24.4c-23,0-46.2,5.8-53.9,7.8v127.9c0,4-2.8,6.9-6.6,6.9h-15.1c-4,0-6.9-3-6.9-6.9v-125
							C855,98,856,90,872.5,84.7c15.8-5.4,45.9-10.1,65.8-10.1c38,0,54.2,13.7,54.2,45.8v114.1C992.5,238.5,989.5,241.5,985.6,241.5
							z M1133.9,103.4c-5.5-1.4-20.9-4.9-38.2-4.9c-31.8,0.3-45.2,8.9-45.5,61.7c0.4,58,17.6,61.1,45.8,61.4v1.2v-1.2
							c17.5,0,32.5-3.7,37.9-5.1L1133.9,103.4z M1141.6,239.4l-1.8,0.4c-9.4,2.4-22.2,5.6-44.8,5.6l0,0l0,0
							c-62.1-0.1-74.3-31.4-74.4-85.5c0.1-62.1,19.7-85.2,72.6-85.2c18.6,0,31.5,2.4,40.7,4.6l-0.1-50c-0.1-2.2,0.9-5.1,6.1-6
							l16.5-4.2h0.9c3.8,0.1,5.1,3.5,5.1,6.3v187.8C1162.8,225.1,1161.4,235.2,1141.6,239.4z M1262.1,221.3
							c-40.7-0.2-42.8-21.1-43-61.1c0.3-40.2,2.3-61.2,43-61.4c40.7,0.2,42.8,21.2,43,61.4C1304.9,200.2,1302.8,221.1,1262.1,221.3z
							 M1262.1,74.7c-67.1,0.1-72.8,44.2-72.9,85.5c0.1,41.2,5.8,85.1,72.9,85.2l0,0c67.1-0.1,72.8-43.9,72.9-85.2
							C1334.9,117,1329.2,74.8,1262.1,74.7z M796.8,161.1c-6.7,0.1-39.3,0.6-52.3,3.4l-1,0.2c-14.6,3.3-26.1,5.8-26.3,27.5
							c0,27.2,20.8,29.6,42.1,29.8v1.2V222c13.3,0,25.9-1.9,37.4-5.6L796.8,161.1z M825.6,121.4v86.4c0.3,21.5-5.2,28.4-26.9,33.4
							c-9.5,2-24,4.3-39.7,4.3l0,0c-23.2,0-71.4-0.1-71.4-52.1c-0.2-40.9,24.4-48.1,54.1-52.6c19.5-3.1,39.3-3.6,49.3-3.6
							c2.7,0,4.5,0,5.5,0v-14.6c-0.1-9.8-0.2-15.7-9.3-19.1c-5.6-2.4-14-3.5-26.5-3.5c-20.6,0-39,4.6-51.1,7.7l-4.7,1.1
							c-0.5,0.1-1,0.3-1.7,0.3l0,0c-2.1,0-4.5-1.3-5.4-4.1l-0.1-0.3l-2.8-13.9v-0.7c0-3.3,2.4-5.2,4.6-5.9
							c9.8-3.7,35.8-9.5,63.7-9.5c20.4,0,35.2,2.7,45.1,8.1C825.7,91.8,825.6,108.2,825.6,121.4z M555.8,216.3
							c-11.5,3.7-24.1,5.6-37.4,5.6v1.2v-1.2c-21.3-0.2-42.1-2.6-42.1-29.8c0.1-21.6,11.7-24.2,26.3-27.5l1-0.2
							c13-2.8,45.6-3.3,52.3-3.4L555.8,216.3z M567.7,82.8c-9.9-5.5-24.7-8.1-45.1-8.1c-28,0-53.9,5.8-63.7,9.5
							c-2.2,0.7-4.6,2.6-4.6,5.9v0.7l2.8,13.9l0.1,0.3c0.9,2.8,3.2,4.1,5.4,4.1l0,0c0.7,0,1.2-0.2,1.7-0.3l4.7-1.1
							c12.2-3,30.6-7.7,51.1-7.7c12.5,0,20.9,1.1,26.5,3.5c9.1,3.5,9.2,9.3,9.3,19.1v14.6c-1,0-2.8,0-5.5,0
							c-10.1,0-29.9,0.5-49.3,3.6c-29.7,4.6-54.3,11.7-54.1,52.6c0,52,48.2,52.1,71.4,52.1l0,0c15.7,0,30.2-2.3,39.7-4.3
							c21.6-5,27.1-11.9,26.9-33.4v-86.4C584.7,108.2,584.7,91.8,567.7,82.8z"/>
					</g>
				</g>
				<g>
					<defs>
						<rect id="SVGID_7_" x="24.1" y="19.1" width="1310.9" height="240.1"/>
					</defs>
					<clipPath id="SVGID_8_">
						<use xlink:href="#SVGID_7_"  style="overflow:visible;"/>
					</clipPath>
					<g class="st2">
						<g>
							<g>
								
									<linearGradient id="SVGID_9_" gradientUnits="userSpaceOnUse" x1="5.5743" y1="208.5568" x2="149.4535" y2="97.6252" gradientTransform="matrix(1 0 0 -1 0 272)">
									<stop  offset="0" style="stop-color:#FFC296"/>
									<stop  offset="1" style="stop-color:#FE791C"/>
								</linearGradient>
								<path id="SVGID_5_" class="st3" d="M205.6,130.7c-0.6-0.7-1.2-1.4-1.9-2.1c-27.6-30.8-84.9-68.1-149.8-68.1
									c-20.5,0-31,55.9-29.9,108.4c58.2,13.7,120.4-1.7,180.7-37.6C205,131.1,205.3,130.9,205.6,130.7 M205.6,130.7L205.6,130.7"
									/>
							</g>
							<g>
								
									<linearGradient id="SVGID_10_" gradientUnits="userSpaceOnUse" x1="19.8665" y1="-68.2081" x2="120.4998" y2="101.4982" gradientTransform="matrix(1 0 0 -1 0 272)">
									<stop  offset="0" style="stop-color:#FFC296"/>
									<stop  offset="1" style="stop-color:#FF6900"/>
								</linearGradient>
								<path id="SVGID_6_" class="st4" d="M221.3,159.8c0,26.2-88.3,99.3-165.8,99.3c-20.2,0-30.4-44.2-31.5-90.3
									c58.6,13.8,121.1-1.9,181.7-38.2C214.6,140.6,221.3,153.3,221.3,159.8"/>
							</g>
							<g>
								<defs>
									<path id="SVGID_11_" d="M205.6,130.7c-0.6-0.7-1.2-1.4-1.9-2.1c-27.6-30.8-84.9-68.1-149.8-68.1
										c-20.5,0-31,55.9-29.9,108.4c58.2,13.7,120.4-1.7,180.7-37.6C205,131.1,205.3,130.9,205.6,130.7 M205.6,130.7L205.6,130.7"
										/>
								</defs>
								<clipPath id="SVGID_12_">
									<use xlink:href="#SVGID_11_"  style="overflow:visible;"/>
								</clipPath>
							</g>
						</g>
					</g>
				</g>
			</g>
		</g>
	</g>
</g>
</svg>
