<?xml version="1.0" encoding="UTF-8"?>
<svg width="86px" height="90px" viewBox="0 0 86 90" version="1.1" xmlns="http://www.w3.org/2000/svg" xmlns:xlink="http://www.w3.org/1999/xlink">
    <!-- Generator: Sketch 42 (36781) - http://www.bohemiancoding.com/sketch -->
    <title>icon-flags</title>
    <desc>Created with Sketch.</desc>
    <defs>
        <path d="M5,21 C5,21 8,23 16,23 C24,23 26,20 34,20 C42,20 46,22 46,22 L46,49 C46,49 43,47 34,47 C25,47 24,50 16,50 C8,50 5,48 5,48 L5,21 Z" id="path-1"></path>
        <mask id="mask-2" maskContentUnits="userSpaceOnUse" maskUnits="objectBoundingBox" x="0" y="0" width="41" height="30" fill="white">
            <use xlink:href="#path-1"></use>
        </mask>
        <path d="M25,23 L25,11 L25,11 C25,11 28,13 36,13 C44,13 46,10 54,10 C62,10 66,12 66,12 L66,39 C66,39 63,37 54,37 C49.4451958,37 46.9394031,37.7683793 44.538279,38.5274007" id="path-3"></path>
        <mask id="mask-4" maskContentUnits="userSpaceOnUse" maskUnits="objectBoundingBox" x="0" y="0" width="41" height="29" fill="white">
            <use xlink:href="#path-3"></use>
        </mask>
        <path d="M45,13 L45,1 L45,1 C45,1 48,3 56,3 C64,3 66,6.24500451e-16 74,0 C82,0 86,2 86,2 L86,29 C86,29 83,27 74,27 C69.4451958,27 66.9394031,27.7683793 64.538279,28.5274007" id="path-5"></path>
        <mask id="mask-6" maskContentUnits="userSpaceOnUse" maskUnits="objectBoundingBox" x="0" y="0" width="41" height="29" fill="white">
            <use xlink:href="#path-5"></use>
        </mask>
    </defs>
    <g id="Pages" stroke="none" stroke-width="1" fill="none" fill-rule="evenodd">
        <g id="Sponsorship" transform="translate(-977.000000, -686.000000)">
            <g id="2016" transform="translate(0.000000, 480.000000)">
                <g id="icon-flags" transform="translate(977.000000, 206.000000)">
                    <rect id="Rectangle-16" fill="#FFFFFF" x="20" y="48" width="3" height="32"></rect>
                    <rect id="Rectangle-16" fill="#FFFFFF" x="40" y="46" width="3" height="24"></rect>
                    <rect id="Rectangle-16" fill="#FFFFFF" x="20" y="11" width="3" height="13"></rect>
                    <rect id="Rectangle-16" fill="#FFFFFF" x="40" y="1" width="3" height="13"></rect>
                    <use id="Rectangle-15" stroke="#FFFFFF" mask="url(#mask-2)" stroke-width="6" xlink:href="#path-1"></use>
                    <use id="Rectangle-15" stroke="#FFFFFF" mask="url(#mask-4)" stroke-width="6" xlink:href="#path-3"></use>
                    <rect id="Rectangle-16" fill="#FFFFFF" x="0" y="21" width="3" height="69"></rect>
                    <use id="Rectangle-15" stroke="#FFFFFF" mask="url(#mask-6)" stroke-width="6" xlink:href="#path-5"></use>
                </g>
            </g>
        </g>
    </g>
</svg>