<?xml version="1.0" encoding="UTF-8"?>
<svg width="34px" height="33px" viewBox="0 0 34 33" version="1.1" xmlns="http://www.w3.org/2000/svg" xmlns:xlink="http://www.w3.org/1999/xlink">
    <!-- Generator: Sketch 42 (36781) - http://www.bohemiancoding.com/sketch -->
    <title>Facebook_icon_2013</title>
    <desc>Created with Sketch.</desc>
    <defs></defs>
    <g id="Pages" stroke="none" stroke-width="1" fill="none" fill-rule="evenodd">
        <g id="Sponsorship" transform="translate(-1003.000000, -2043.000000)" fill-rule="nonzero">
            <g id="Reach" transform="translate(306.000000, 1874.000000)">
                <g id="Facebook_icon_2013" transform="translate(697.000000, 169.000000)">
                    <g id="svg2">
                        <g id="layer1" transform="translate(0.016661, 0.004505)">
                            <g id="g3005" transform="translate(-0.000000, 0.023921)">
                                <path d="M1.79783398,0.0206037055 L31.4910919,0.0206037055 C32.4870919,0.0206037055 33.2889259,0.807137562 33.2889259,1.78413253 L33.2889259,30.9108022 C33.2889259,31.8877972 32.4870919,32.674331 31.4910919,32.674331 L22.9948765,32.674331 L20.3375746,30.5193022 L17.7753585,32.674331 L1.79783398,32.674331 C0.801833953,32.674331 0,31.8877972 0,30.9108022 L0,1.78413253 C0,0.807137562 0.801833953,0.0206037055 1.79783398,0.0206037055 L1.79783398,0.0206037055 Z" id="rect3000" fill="#3B579D"></path>
                                <path d="M17.7753585,32.674331 L17.7753585,20.0167451 L13.4257602,20.0167451 L13.4257602,15.0959308 L17.7753585,15.0959308 L17.7753585,11.341321 C17.7753585,7.40544723 20.2629013,4.95912953 24.1810717,4.95912953 C26.5397446,4.95912953 28.1274025,5.14052611 28.1274025,5.14052611 L28.1274025,9.57779219 L25.470005,9.57779219 C23.7860151,9.57779219 22.9948765,10.1587833 22.9948765,11.9102013 L22.9948765,15.0959308 L27.9534186,15.0959308 L27.3154775,20.0167451 L22.9948765,20.0167451 L22.9948765,32.674331 L17.7753585,32.674331 Z" id="path3002" fill="#FFFFFF"></path>
                            </g>
                        </g>
                    </g>
                </g>
            </g>
        </g>
    </g>
</svg>