<?xml version="1.0" encoding="UTF-8"?>
<svg width="41px" height="33px" viewBox="0 0 41 33" version="1.1" xmlns="http://www.w3.org/2000/svg" xmlns:xlink="http://www.w3.org/1999/xlink">
    <!-- Generator: Sketch 42 (36781) - http://www.bohemiancoding.com/sketch -->
    <title>twitter</title>
    <desc>Created with Sketch.</desc>
    <defs></defs>
    <g id="Pages" stroke="none" stroke-width="1" fill="none" fill-rule="evenodd">
        <g id="Sponsorship" transform="translate(-359.000000, -2044.000000)" fill-rule="nonzero" fill="#1DA1F2">
            <g id="Reach" transform="translate(306.000000, 1874.000000)">
                <g id="twitter" transform="translate(53.000000, 170.000000)">
                    <g id="svg3626">
                        <g id="layer1" transform="translate(0.111997, 0.019124)">
                            <path d="M12.8163795,32.6800827 C28.1663483,32.6800827 36.5600599,20.152653 36.5600599,9.28972474 C36.5600599,8.93390288 36.5527029,8.57968649 36.5365013,8.22707153 C38.1659443,7.06665026 39.5822519,5.6185265 40.6991897,3.97005294 C39.2039732,4.62479404 37.5948676,5.06556308 35.9068503,5.26431011 C37.6298478,4.24653465 38.9526009,2.63653042 39.5765574,0.717184863 C37.9641965,1.65882573 36.17856,2.34321955 34.277406,2.71266233 C32.7545307,1.11467758 30.5865481,0.115336743 28.1859049,0.115336743 C23.5774165,0.115336743 19.8401881,3.79695303 19.8401881,8.33526031 C19.8401881,8.98038341 19.9134025,9.60787865 20.0565801,10.2097254 C13.1206643,9.86592708 6.97058756,6.59462707 2.85508319,1.62035908 C2.13838702,2.83527611 1.72512948,4.24653465 1.72512948,5.75235838 C1.72512948,8.60452953 3.19838028,11.1225177 5.43876385,12.5954845 C4.06964162,12.5538123 2.78349438,12.1835654 1.65923376,11.5672923 C1.65800532,11.6017843 1.65800532,11.6354117 1.65800532,11.6722755 C1.65800532,15.6536124 4.53454919,18.9778054 8.35312699,19.7311173 C7.65188856,19.9194463 6.91404156,20.0204212 6.1526046,20.0204212 C5.61569328,20.0204212 5.09261135,19.9683633 4.58417367,19.8721644 C5.64660604,23.1386561 8.72733683,25.5155971 12.3799619,25.5821151 C9.52375539,27.7875563 5.92563712,29.1010468 2.01513453,29.1010468 C1.34236703,29.1010468 0.677737188,29.0633493 0.0244948968,28.9872469 C3.71779466,31.3193129 8.10338304,32.6800827 12.8168108,32.6800827" id="path3611"></path>
                        </g>
                    </g>
                </g>
            </g>
        </g>
    </g>
</svg>