<?xml version="1.0" encoding="UTF-8"?>
<svg width="80px" height="34px" viewBox="0 0 80 34" version="1.1" xmlns="http://www.w3.org/2000/svg" xmlns:xlink="http://www.w3.org/1999/xlink">
    <!-- Generator: Sketch 42 (36781) - http://www.bohemiancoding.com/sketch -->
    <title>YouTube_logo_2013</title>
    <desc>Created with Sketch.</desc>
    <defs>
        <polygon id="path-1" points="0 -1.05870868e-12 0 32.9838607 79.0897647 32.9838607 79.0897647 -1.05870868e-12"></polygon>
        <path d="M46.6724307,25.8729417 C46.6724307,25.8729417 46.2118313,29.105095 44.798973,30.528589 C43.0069534,32.3965889 40.9978916,32.4060561 40.0766928,32.5152323 C33.4820913,32.9896167 23.5894314,32.9896167 23.5894314,32.9896167 L23.5689771,32.9896167 C23.5689771,32.9896167 13.6759385,32.9896167 7.08133693,32.5152323 C6.16013814,32.4060561 4.15164447,32.3965889 2.35924616,30.528589 C0.946084795,29.105095 0.486053573,25.8729417 0.486053573,25.8729417 C0.486053573,25.8729417 0.0148103918,22.0772984 0.0148103918,18.28139 L0.0148103918,14.7228821 C0.0148103918,10.9274281 0.486053573,7.13178474 0.486053573,7.13178474 C0.486053573,7.13178474 0.946084795,3.89974509 2.35924616,2.47612606 C4.15164447,0.60767935 6.50710281,0.667144971 7.55557249,0.471438207 C11.3259725,0.111240058 23.5792043,1.3500312e-13 23.5792043,1.3500312e-13 C23.5792043,1.3500312e-13 33.4820913,0.0147925609 40.0766928,0.489043485 C40.9978916,0.598507489 43.0069534,0.60767935 44.798973,2.47612606 C46.2118313,3.89974509 46.6724307,7.13178474 46.6724307,7.13178474 C46.6724307,7.13178474 47.1432572,10.9274281 47.1432572,14.7228821 L47.1432572,18.28139 C47.1432572,22.0772984 46.6724307,25.8729417 46.6724307,25.8729417 Z" id="path-3"></path>
        <linearGradient x1="-39.4603213%" y1="24.004248%" x2="-39.4603213%" y2="-0.000114810563%" id="linearGradient-5">
            <stop stop-color="#E42526" offset="0%"></stop>
            <stop stop-color="#BE1F26" offset="100%"></stop>
        </linearGradient>
    </defs>
    <g id="Pages" stroke="none" stroke-width="1" fill="none" fill-rule="evenodd">
        <g id="Sponsorship" transform="translate(-659.000000, -2044.000000)">
            <g id="Reach" transform="translate(306.000000, 1874.000000)">
                <g id="YouTube_logo_2013" transform="translate(353.000000, 169.000000)">
                    <g id="svg2985">
                        <g id="g2993" transform="translate(40.537291, 17.939100) scale(-1, 1) rotate(-180.000000) translate(-40.537291, -17.939100) translate(0.037291, 0.939100)">
                            <g id="g2995" transform="translate(0.002286, 0.072971)">
                                <g id="g2997">
                                    <g id="g2999-Clipped">
                                        <mask id="mask-2" fill="white">
                                            <use xlink:href="#path-1"></use>
                                        </mask>
                                        <g id="path3003"></g>
                                        <g id="g2999" mask="url(#mask-2)">
                                            <g transform="translate(31.931356, -0.000000)" id="g3005-Clipped">
                                                <g>
                                                    <mask id="mask-4" fill="white">
                                                        <use xlink:href="#path-3"></use>
                                                    </mask>
                                                    <g id="path3009"></g>
                                                    <g id="g3005" mask="url(#mask-4)" fill-rule="nonzero" fill="url(#linearGradient-5)">
                                                        <polyline id="path3017" points="20.530006 0 20.530006 0.037868956 18.2573116 0.037868956 18.2573116 0.075737912 16.3633996 0.075737912 16.3633996 0.113606868 14.7725135 0.113606868 14.7725135 0.151475824 13.3710186 0.151475824 13.3710186 0.18934478 12.1967932 0.18934478 12.1967932 0.227213736 11.1362025 0.227213736 11.1362025 0.265082692 10.2271247 0.265082692 10.2271247 0.302951648 9.46955994 0.302951648 9.46955994 0.340820604 8.78775163 0.340820604 8.78775163 0.37868956 8.21957803 0.37868956 8.21957803 0.416558516 7.76503915 0.416558516 7.76503915 0.454427472 7.424135 0.454427472 7.424135 0.492296428 7.12110908 0.492296428 7.12110908 0.530165384 6.81808316 0.530165384 6.81808316 0.56803434 6.51505724 0.56803434 6.51505724 0.605903296 6.24990956 0.605903296 6.24990956 0.643772252 6.02264012 0.643772252 6.02264012 0.681641208 5.79537069 0.681641208 5.79537069 0.719510164 5.60597949 0.719510164 5.60597949 0.75737912 5.45446653 0.75737912 5.45446653 0.795248076 5.26507533 0.795248076 5.26507533 0.833117032 5.11356237 0.833117032 5.11356237 0.870985988 4.99992765 0.870985988 4.99992765 0.908854944 4.84841469 0.908854944 4.84841469 0.9467239 4.73477997 0.9467239 4.73477997 0.984592856 4.65902349 0.984592856 4.65902349 1.02246181 4.54538877 1.02246181 4.54538877 1.06033077 4.43175405 1.06033077 4.43175405 1.09819972 4.35599757 1.09819972 4.35599757 1.13606868 4.24236286 1.13606868 4.24236286 1.17393764 4.16660638 1.17393764 4.16660638 1.21180659 4.0908499 1.21180659 4.0908499 1.24967555 3.97721518 1.24967555 3.97721518 1.2875445 3.9014587 1.2875445 3.9014587 1.32541346 3.82570222 1.32541346 3.82570222 1.36328242 3.74994574 1.36328242 3.74994574 1.40115137 3.7120675 1.40115137 3.7120675 1.43902033 3.63631102 1.43902033 3.63631102 1.47688928 3.56055454 1.47688928 3.56055454 1.51475824 3.48479806 1.51475824 3.48479806 1.5526272 3.44691982 1.5526272 3.44691982 1.59049615 3.37116334 1.59049615 3.37116334 1.62836511 3.3332851 1.62836511 3.3332851 1.66623406 3.25752862 1.66623406 3.25752862 1.70410302 3.21965038 1.70410302 3.21965038 1.74197198 3.1438939 1.74197198 3.1438939 1.77984093 3.10601566 1.77984093 3.10601566 1.81770989 3.03025918 1.81770989 3.03025918 1.85557884 2.99238094 1.85557884 2.99238094 1.8934478 2.9545027 1.8934478 2.9545027 1.93131676 2.91662446 1.93131676 2.91662446 1.96918571 2.84086798 1.96918571 2.84086798 2.00705467 2.80298974 2.00705467 2.80298974 2.04492362 2.7651115 2.04492362 2.7651115 2.08279258 2.72723326 2.08279258 2.72723326 2.12066154 2.68935502 2.12066154 2.68935502 2.15853049 2.61359854 2.15853049 2.61359854 2.19639945 2.5757203 2.19639945 2.5757203 2.2342684 2.53784207 2.2342684 2.53784207 2.27213736 2.49996383 2.27213736 2.49996383 2.31000632 2.46208559 2.31000632 2.46208559 2.34787527 2.42420735 2.34787527 2.42420735 2.38574423 2.38632911 2.38574423 2.38632911 2.42361318 2.34845087 2.42361318 2.34845087 2.46148214 2.31057263 2.46148214 2.31057263 2.4993511 2.27269439 2.4993511 2.27269439 2.53722005 2.23481615 2.53722005 2.23481615 2.61295796 2.19693791 2.61295796 2.19693791 2.65082692 2.15905967 2.65082692 2.15905967 2.68869588 2.12118143 2.68869588 2.12118143 2.72656483 2.08330319 2.72656483 2.08330319 2.76443379 2.04542495 2.76443379 2.04542495 2.8401717 2.00754671 2.8401717 2.00754671 2.87804066 1.96966847 2.87804066 1.96966847 2.91590961 1.93179023 2.91590961 1.93179023 2.99164752 1.89391199 2.99164752 1.89391199 3.02951648 1.85603375 3.02951648 1.85603375 3.10525439 1.81815551 3.10525439 1.81815551 3.14312335 1.78027727 3.14312335 1.78027727 3.21886126 1.74239903 3.21886126 1.74239903 3.29459917 1.70452079 3.29459917 1.70452079 3.33246813 1.66664255 3.33246813 1.66664255 3.40820604 1.62876431 3.40820604 1.62876431 3.48394395 1.59088607 3.48394395 1.59088607 3.55968186 1.55300783 3.55968186 1.55300783 3.63541978 1.51512959 3.63541978 1.51512959 3.71115769 1.47725135 3.71115769 1.47725135 3.7868956 1.43937311 3.7868956 1.43937311 3.86263351 1.40149487 3.86263351 1.40149487 3.93837142 1.36361663 3.93837142 1.36361663 4.01410934 1.32573839 4.01410934 1.32573839 4.08984725 1.28786015 4.08984725 1.28786015 4.20345412 1.24998191 4.20345412 1.24998191 4.27919203 1.21210367 4.27919203 1.21210367 4.3927989 1.17422543 4.3927989 1.17422543 4.46853681 1.13634719 4.46853681 1.13634719 4.58214367 1.09846895 4.58214367 1.09846895 4.69575054 1.06059071 4.69575054 1.06059071 4.80935741 1.02271247 4.80935741 1.02271247 4.92296428 0.984834234 4.92296428 0.984834234 5.03657115 0.946955994 5.03657115 0.946955994 5.15017801 0.909077755 5.15017801 0.909077755 5.26378488 0.871199515 5.26378488 0.871199515 5.37739175 0.833321275 5.37739175 0.833321275 5.52886757 0.795443035 5.52886757 0.795443035 5.6803434 0.757564796 5.6803434 0.757564796 5.83181922 0.719686556 5.83181922 0.719686556 5.94542609 0.681808316 5.94542609 0.681808316 6.13477087 0.643930076 6.13477087 0.643930076 6.28624669 0.606051836 6.28624669 0.606051836 6.47559147 0.568173597 6.47559147 0.568173597 6.66493625 0.530295357 6.66493625 0.530295357 6.85428103 0.492417117 6.85428103 0.492417117 7.08149477 0.454538877 7.08149477 0.454538877 7.38444642 0.416660638 7.38444642 0.416660638 7.72526702 0.378782398 7.72526702 0.378782398 8.10395658 0.340904158 8.10395658 0.340904158 8.48264614 0.303025918 8.48264614 0.303025918 8.89920466 0.265147678 8.89920466 0.265147678 9.31576317 0.227269439 9.31576317 0.227269439 9.77019065 0.189391199 9.77019065 0.189391199 10.2624871 0.151512959 10.2624871 0.151512959 10.8305214 0.113634719 10.8305214 0.113634719 11.4364247 0.0757564796 11.4364247 0.0757564796 12.1938038 0.0378782398 12.1938038 0.0378782398 13.2162656 0 13.2162656 0 19.805464 0.0378782398 19.805464 0.0378782398 20.7900568 0.0757564796 20.7900568 0.0757564796 21.547436 0.113634719 21.547436 0.113634719 22.1912082 0.151512959 22.1912082 0.151512959 22.7213736 0.189391199 22.7213736 0.189391199 23.21367 0.227269439 23.21367 0.227269439 23.7059665 0.265147678 23.7059665 0.265147678 24.122525 0.303025918 24.122525 0.303025918 24.5390835 0.340904158 24.5390835 0.340904158 24.917773 0.378782398 24.917773 0.378782398 25.2585936 0.416660638 25.2585936 0.416660638 25.6372832 0.454538877 25.6372832 0.454538877 25.9402349 0.492417117 25.9402349 0.492417117 26.1674486 0.530295357 26.1674486 0.530295357 26.3567934 0.568173597 26.3567934 0.568173597 26.5461382 0.606051836 26.5461382 0.606051836 26.7354829 0.643930076 26.7354829 0.643930076 26.8869588 0.681808316 26.8869588 0.681808316 27.0384346 0.719686556 27.0384346 0.719686556 27.1899104 0.757564796 27.1899104 0.757564796 27.3413862 0.795443035 27.3413862 0.795443035 27.492862 0.833321275 27.492862 0.833321275 27.6064689 0.871199515 27.6064689 0.871199515 27.7200758 0.909077755 27.7200758 0.909077755 27.8715516 0.946955994 27.8715516 0.946955994 27.9851585 0.984834234 27.9851585 0.984834234 28.0987653 1.02271247 28.0987653 1.02271247 28.2123722 1.06059071 28.2123722 1.06059071 28.3259791 1.09846895 28.3259791 1.09846895 28.4395859 1.13634719 28.4395859 1.13634719 28.5153239 1.17422543 28.5153239 1.17422543 28.6289307 1.21210367 28.6289307 1.21210367 28.7046686 1.24998191 28.7046686 1.24998191 28.8182755 1.28786015 28.8182755 1.28786015 28.8940134 1.32573839 28.8940134 1.32573839 28.9697513 1.36361663 28.9697513 1.36361663 29.0833582 1.40149487 29.0833582 1.40149487 29.1590961 1.43937311 29.1590961 1.43937311 29.234834 1.47725135 29.234834 1.47725135 29.3105719 1.51512959 29.3105719 1.51512959 29.3863098 1.55300783 29.3863098 1.55300783 29.4620478 1.59088607 29.4620478 1.59088607 29.5377857 1.62876431 29.5377857 1.62876431 29.6135236 1.66664255 29.6135236 1.66664255 29.6513925 1.70452079 29.6513925 1.70452079 29.7271305 1.74239903 29.7271305 1.74239903 29.8028684 1.78027727 29.8028684 1.78027727 29.8407373 1.81815551 29.8407373 1.81815551 29.9164752 1.85603375 29.9164752 1.85603375 29.9543442 1.89391199 29.9543442 1.89391199 30.0300821 1.93179023 30.0300821 1.93179023 30.0679511 1.96966847 30.0679511 1.96966847 30.143689 2.00754671 30.143689 2.00754671 30.1815579 2.04542495 30.1815579 2.04542495 30.2194269 2.08330319 30.2194269 2.08330319 30.2951648 2.12118143 30.2951648 2.12118143 30.3330337 2.15905967 30.3330337 2.15905967 30.3709027 2.19693791 30.3709027 2.19693791 30.4087717 2.23481615 30.4087717 2.23481615 30.4466406 2.27269439 30.4466406 2.27269439 30.4845096 2.31057263 30.4845096 2.31057263 30.5223785 2.34845087 30.5223785 2.34845087 30.5602475 2.38632911 30.5602475 2.38632911 30.5981164 2.42420735 30.5981164 2.42420735 30.6359854 2.46208559 30.6359854 2.46208559 30.6738544 2.49996383 30.6738544 2.49996383 30.7117233 2.53784207 30.7117233 2.53784207 30.7495923 2.5757203 30.7495923 2.5757203 30.7874612 2.61359854 30.7874612 2.61359854 30.8253302 2.65147678 30.8253302 2.65147678 30.8631991 2.72723326 30.8631991 2.72723326 30.9010681 2.7651115 30.9010681 2.7651115 30.938937 2.80298974 30.938937 2.80298974 30.976806 2.84086798 30.976806 2.84086798 31.014675 2.87874622 31.014675 2.87874622 31.0525439 2.91662446 31.0525439 2.91662446 31.0904129 2.9545027 31.0904129 2.9545027 31.1282818 2.99238094 31.1282818 2.99238094 31.1661508 3.06813742 31.1661508 3.06813742 31.2040197 3.10601566 31.2040197 3.10601566 31.2418887 3.1438939 31.2418887 3.1438939 31.2797576 3.21965038 31.2797576 3.21965038 31.3176266 3.25752862 31.3176266 3.25752862 31.3554956 3.3332851 31.3554956 3.3332851 31.3933645 3.37116334 31.3933645 3.37116334 31.4312335 3.44691982 31.4312335 3.44691982 31.4691024 3.48479806 31.4691024 3.48479806 31.5069714 3.56055454 31.5069714 3.56055454 31.5448403 3.59843278 31.5448403 3.59843278 31.5827093 3.67418926 31.5827093 3.67418926 31.6205783 3.7120675 31.6205783 3.7120675 31.6584472 3.78782398 31.6584472 3.78782398 31.6963162 3.86358046 31.6963162 3.86358046 31.7341851 3.93933694 31.7341851 3.93933694 31.7720541 4.01509342 31.7720541 4.01509342 31.809923 4.0908499 31.809923 4.0908499 31.847792 4.16660638 31.847792 4.16660638 31.8856609 4.24236286 31.8856609 4.24236286 31.9235299 4.31811933 31.9235299 4.31811933 31.9613989 4.43175405 31.9613989 4.43175405 31.9992678 4.50751053 31.9992678 4.50751053 32.0371368 4.62114525 32.0371368 4.62114525 32.0750057 4.73477997 32.0750057 4.73477997 32.1128747 4.84841469 32.1128747 4.84841469 32.1507436 4.92417117 32.1507436 4.92417117 32.1886126 5.07568413 32.1886126 5.07568413 32.2264815 5.22719709 32.2264815 5.22719709 32.2643505 5.37871005 32.2643505 5.37871005 32.3022195 5.53022301 32.3022195 5.53022301 32.3400884 5.68173597 32.3400884 5.68173597 32.3779574 5.90900541 32.3779574 5.90900541 32.4158263 6.13627484 32.4158263 6.13627484 32.4536953 6.477179 32.4536953 6.477179 32.4915642 6.81808316 32.4915642 6.81808316 32.5294332 7.27262204 32.5294332 7.27262204 32.5673022 7.84079563 32.5673022 7.84079563 32.6051711 8.44684747 32.6051711 8.44684747 32.6430401 9.12865579 32.6430401 9.12865579 32.680909 9.84834234 32.680909 9.84834234 32.718778 10.6816636 32.718778 10.6816636 32.7566469 11.5907414 32.7566469 11.5907414 32.7945159 12.5755756 32.7945159 12.5755756 32.8323848 13.7119228 32.8323848 13.7119228 32.8702538 15.0376612 32.8702538 15.0376612 32.9081228 16.6664255 32.9081228 16.6664255 32.9459917 18.7497287 32.9459917 18.7497287 32.9838607 28.4086798 32.9838607 28.4086798 32.9459917 30.491983 32.9459917 30.491983 32.9081228 32.1207473 32.9081228 32.1207473 32.8702538 33.4464857 32.8702538 33.4464857 32.8323848 34.5828329 32.8323848 34.5828329 32.7945159 35.5676672 32.7945159 35.5676672 32.7566469 36.4767449 32.7566469 36.4767449 32.718778 37.3100662 32.718778 37.3100662 32.680909 38.0297527 32.680909 38.0297527 32.6430401 38.7115611 32.6430401 38.7115611 32.6051711 39.3176129 32.6051711 39.3176129 32.5673022 39.8857865 32.5673022 39.8857865 32.5294332 40.3403254 32.5294332 40.3403254 32.4915642 40.6812295 32.4915642 40.6812295 32.4536953 41.0221337 32.4536953 41.0221337 32.4158263 41.2494031 32.4158263 41.2494031 32.3779574 41.4766726 32.3779574 41.4766726 32.3400884 41.6281855 32.3400884 41.6281855 32.3022195 41.7796985 32.3022195 41.7796985 32.2643505 41.9312114 32.2643505 41.9312114 32.2264815 42.0827244 32.2264815 42.0827244 32.1886126 42.2342374 32.1886126 42.2342374 32.1507436 42.3099938 32.1507436 42.3099938 32.1128747 42.4236286 32.1128747 42.4236286 32.0750057 42.5372633 32.0750057 42.5372633 32.0371368 42.650898 32.0371368 42.650898 31.9992678 42.7266545 31.9992678 42.7266545 31.9613989 42.8402892 31.9613989 42.8402892 31.9235299 42.9160457 31.9235299 42.9160457 31.8856609 42.9918021 31.8856609 42.9918021 31.847792 43.0675586 31.847792 43.0675586 31.809923 43.1433151 31.809923 43.1433151 31.7720541 43.2190716 31.7720541 43.2190716 31.7341851 43.2948281 31.7341851 43.2948281 31.6963162 43.3705845 31.6963162 43.3705845 31.6584472 43.446341 31.6584472 43.446341 31.6205783 43.4842193 31.6205783 43.4842193 31.5827093 43.5599757 31.5827093 43.5599757 31.5448403 43.597854 31.5448403 43.597854 31.5069714 43.6736105 31.5069714 43.6736105 31.4691024 43.7114887 31.4691024 43.7114887 31.4312335 43.7872452 31.4312335 43.7872452 31.3933645 43.8251234 31.3933645 43.8251234 31.3554956 43.9008799 31.3554956 43.9008799 31.3176266 43.9387581 31.3176266 43.9387581 31.2797576 44.0145146 31.2797576 44.0145146 31.2418887 44.0523929 31.2418887 44.0523929 31.2040197 44.0902711 31.2040197 44.0902711 31.1661508 44.1660276 31.1661508 44.1660276 31.1282818 44.2039058 31.1282818 44.2039058 31.0904129 44.2417841 31.0904129 44.2417841 31.0525439 44.2796623 31.0525439 44.2796623 31.014675 44.3175405 31.014675 44.3175405 30.976806 44.3554188 30.976806 44.3554188 30.938937 44.393297 30.938937 44.393297 30.9010681 44.4311753 30.9010681 44.4311753 30.8631991 44.5069317 30.8631991 44.5069317 30.8253302 44.54481 30.8253302 44.54481 30.7874612 44.5826882 30.7874612 44.5826882 30.7495923 44.6205665 30.7495923 44.6205665 30.7117233 44.6584447 30.7117233 44.6584447 30.6738544 44.6963229 30.6738544 44.6963229 30.6359854 44.7342012 30.6359854 44.7342012 30.5981164 44.7720794 30.5981164 44.7720794 30.5602475 44.8099577 30.5602475 44.8099577 30.5223785 44.8478359 30.5223785 44.8478359 30.4845096 44.8857141 30.4845096 44.8857141 30.4466406 44.9235924 30.4466406 44.9235924 30.4087717 44.9614706 30.4087717 44.9614706 30.3709027 44.9993489 30.3709027 44.9993489 30.3330337 45.0372271 30.3330337 45.0372271 30.2951648 45.0751053 30.2951648 45.0751053 30.2194269 45.1129836 30.2194269 45.1129836 30.1815579 45.1508618 30.1815579 45.1508618 30.10582 45.1887401 30.10582 45.1887401 30.0679511 45.2266183 30.0679511 45.2266183 30.0300821 45.2644965 30.0300821 45.2644965 29.9543442 45.3023748 29.9543442 45.3023748 29.9164752 45.340253 29.9164752 45.340253 29.8407373 45.3781313 29.8407373 45.3781313 29.8028684 45.4160095 29.8028684 45.4160095 29.7271305 45.4538877 29.7271305 45.4538877 29.6513925 45.491766 29.6513925 45.491766 29.6135236 45.5296442 29.6135236 45.5296442 29.5377857 45.5675225 29.5377857 45.5675225 29.4620478 45.6054007 29.4620478 45.6054007 29.3863098 45.6432789 29.3863098 45.6432789 29.3105719 45.6811572 29.3105719 45.6811572 29.234834 45.7190354 29.234834 45.7190354 29.1590961 45.7569137 29.1590961 45.7569137 29.0833582 45.7947919 29.0833582 45.7947919 28.9697513 45.8326701 28.9697513 45.8326701 28.8940134 45.8705484 28.8940134 45.8705484 28.8182755 45.9084266 28.8182755 45.9084266 28.7046686 45.9463049 28.7046686 45.9463049 28.6289307 45.9841831 28.6289307 45.9841831 28.5153239 46.0220613 28.5153239 46.0220613 28.4395859 46.0599396 28.4395859 46.0599396 28.3259791 46.0978178 28.3259791 46.0978178 28.2123722 46.135696 28.2123722 46.135696 28.0987653 46.1735743 28.0987653 46.1735743 27.9851585 46.2114525 27.9851585 46.2114525 27.8715516 46.2493308 27.8715516 46.2493308 27.7200758 46.287209 27.7200758 46.287209 27.6064689 46.3250872 27.6064689 46.3250872 27.492862 46.3629655 27.492862 46.3629655 27.3413862 46.4008437 27.3413862 46.4008437 27.1899104 46.438722 27.1899104 46.438722 27.0384346 46.4766002 27.0384346 46.4766002 26.8869588 46.5144784 26.8869588 46.5144784 26.7354829 46.5523567 26.7354829 46.5523567 26.5461382 46.5902349 26.5461382 46.5902349 26.3567934 46.6281132 26.3567934 46.6281132 26.1674486 46.6659914 26.1674486 46.6659914 25.9402349 46.7038696 25.9402349 46.7038696 25.6372832 46.7417479 25.6372832 46.7417479 25.2964626 46.7796261 25.2964626 46.7796261 24.917773 46.8175044 24.917773 46.8175044 24.5390835 46.8553826 24.5390835 46.8553826 24.122525 46.8932608 24.122525 46.8932608 23.7059665 46.9311391 23.7059665 46.9311391 23.21367 46.9690173 23.21367 46.9690173 22.7213736 47.0068956 22.7213736 47.0068956 22.1533393 47.0447738 22.1533393 47.0447738 21.547436 47.082652 21.547436 47.082652 20.7900568 47.1205303 20.7900568 47.1205303 19.805464 47.1584085 19.805464 47.1584085 13.2162656 47.1205303 13.2162656 47.1205303 12.1938038 47.082652 12.1938038 47.082652 11.4742937 47.0447738 11.4742937 47.0447738 10.8305214 47.0068956 10.8305214 47.0068956 10.300356 46.9690173 10.300356 46.9690173 9.77019065 46.9311391 9.77019065 46.9311391 9.31576317 46.8932608 9.31576317 46.8932608 8.89920466 46.8553826 8.89920466 46.8553826 8.48264614 46.8175044 8.48264614 46.8175044 8.10395658 46.7796261 8.10395658 46.7796261 7.72526702 46.7417479 7.72526702 46.7417479 7.38444642 46.7038696 7.38444642 46.7038696 7.08149477 46.6659914 7.08149477 46.6659914 6.85428103 46.6281132 6.85428103 46.6281132 6.66493625 46.5902349 6.66493625 46.5902349 6.47559147 46.5523567 6.47559147 46.5523567 6.28624669 46.5144784 6.28624669 46.5144784 6.13477087 46.4766002 6.13477087 46.4766002 5.94542609 46.438722 5.94542609 46.438722 5.83181922 46.4008437 5.83181922 46.4008437 5.6803434 46.3629655 5.6803434 46.3629655 5.52886757 46.3250872 5.52886757 46.3250872 5.37739175 46.287209 5.37739175 46.287209 5.26378488 46.2493308 5.26378488 46.2493308 5.15017801 46.2114525 5.15017801 46.2114525 5.03657115 46.1735743 5.03657115 46.1735743 4.92296428 46.135696 4.92296428 46.135696 4.80935741 46.0978178 4.80935741 46.0978178 4.69575054 46.0599396 4.69575054 46.0599396 4.58214367 46.0220613 4.58214367 46.0220613 4.46853681 45.9841831 4.46853681 45.9841831 4.3927989 45.9463049 4.3927989 45.9463049 4.27919203 45.9084266 4.27919203 45.9084266 4.20345412 45.8705484 4.20345412 45.8705484 4.08984725 45.8326701 4.08984725 45.8326701 4.01410934 45.7947919 4.01410934 45.7947919 3.93837142 45.7569137 3.93837142 45.7569137 3.86263351 45.7190354 3.86263351 45.7190354 3.7868956 45.6811572 3.7868956 45.6811572 3.71115769 45.6432789 3.71115769 45.6432789 3.63541978 45.6054007 3.63541978 45.6054007 3.55968186 45.5675225 3.55968186 45.5675225 3.48394395 45.5296442 3.48394395 45.5296442 3.40820604 45.491766 3.40820604 45.491766 3.33246813 45.4538877 3.33246813 45.4538877 3.29459917 45.4160095 3.29459917 45.4160095 3.21886126 45.3781313 3.21886126 45.3781313 3.14312335 45.340253 3.14312335 45.340253 3.10525439 45.3023748 3.10525439 45.3023748 3.02951648 45.2644965 3.02951648 45.2644965 2.99164752 45.2266183 2.99164752 45.2266183 2.91590961 45.1887401 2.91590961 45.1887401 2.87804066 45.1508618 2.87804066 45.1508618 2.8401717 45.1129836 2.8401717 45.1129836 2.76443379 45.0751053 2.76443379 45.0751053 2.72656483 45.0372271 2.72656483 45.0372271 2.68869588 44.9993489 2.68869588 44.9993489 2.65082692 44.9614706 2.65082692 44.9614706 2.61295796 44.9235924 2.61295796 44.9235924 2.53722005 44.8857141 2.53722005 44.8857141 2.4993511 44.8478359 2.4993511 44.8478359 2.46148214 44.8099577 2.46148214 44.8099577 2.42361318 44.7720794 2.42361318 44.7720794 2.38574423 44.7342012 2.38574423 44.7342012 2.34787527 44.6584447 2.34787527 44.6584447 2.31000632 44.6205665 2.31000632 44.6205665 2.27213736 44.5826882 2.27213736 44.5826882 2.2342684 44.54481 2.2342684 44.54481 2.19639945 44.5069317 2.19639945 44.5069317 2.15853049 44.4690535 2.15853049 44.4690535 2.12066154 44.4311753 2.12066154 44.4311753 2.08279258 44.393297 2.08279258 44.393297 2.04492362 44.3554188 2.04492362 44.3554188 2.00705467 44.3175405 2.00705467 44.3175405 1.96918571 44.2417841 1.96918571 44.2417841 1.93131676 44.2039058 1.93131676 44.2039058 1.8934478 44.1660276 1.8934478 44.1660276 1.85557884 44.1281493 1.85557884 44.1281493 1.81770989 44.0902711 1.81770989 44.0902711 1.77984093 44.0145146 1.77984093 44.0145146 1.74197198 43.9766364 1.74197198 43.9766364 1.70410302 43.9008799 1.70410302 43.9008799 1.66623406 43.8630017 1.66623406 43.8630017 1.62836511 43.7872452 1.62836511 43.7872452 1.59049615 43.7493669 1.59049615 43.7493669 1.5526272 43.6736105 1.5526272 43.6736105 1.51475824 43.6357322 1.51475824 43.6357322 1.47688928 43.5599757 1.47688928 43.5599757 1.43902033 43.5220975 1.43902033 43.5220975 1.40115137 43.4842193 1.40115137 43.4842193 1.36328242 43.4084628 1.36328242 43.4084628 1.32541346 43.3327063 1.32541346 43.3327063 1.2875445 43.2569498 1.2875445 43.2569498 1.24967555 43.1811933 1.24967555 43.1811933 1.21180659 43.1054369 1.21180659 43.1054369 1.17393764 43.0296804 1.17393764 43.0296804 1.13606868 42.9539239 1.13606868 42.9539239 1.09819972 42.8781674 1.09819972 42.8781674 1.06033077 42.8024109 1.06033077 42.8024109 1.02246181 42.6887762 1.02246181 42.6887762 0.984592856 42.5751415 0.984592856 42.5751415 0.9467239 42.4615068 0.9467239 42.4615068 0.908854944 42.3857503 0.908854944 42.3857503 0.870985988 42.2721156 0.870985988 42.2721156 0.833117032 42.1584809 0.833117032 42.1584809 0.795248076 42.0069679 0.795248076 42.0069679 0.75737912 41.855455 0.75737912 41.855455 0.719510164 41.703942 0.719510164 41.703942 0.681641208 41.552429 0.681641208 41.552429 0.643772252 41.3251596 0.643772252 41.3251596 0.605903296 41.0978902 0.605903296 41.0978902 0.56803434 40.8327425 0.56803434 40.8327425 0.530165384 40.4918383 0.530165384 40.4918383 0.492296428 40.1130559 0.492296428 40.1130559 0.454427472 39.5827606 0.454427472 39.5827606 0.416558516 38.9767087 0.416558516 38.9767087 0.37868956 38.3327787 0.37868956 38.3327787 0.340820604 37.6509703 0.340820604 37.6509703 0.302951648 36.8555273 0.302951648 36.8555273 0.265082692 36.0600843 0.265082692 36.0600843 0.227213736 35.1131283 0.227213736 35.1131283 0.18934478 34.0525376 0.18934478 34.0525376 0.151475824 32.8783121 0.151475824 32.8783121 0.113606868 31.4768173 0.113606868 31.4768173 0.075737912 29.8101747 0.075737912 29.8101747 0.037868956 27.651115 0.037868956 27.651115 0"></polyline>
                                                    </g>
                                                </g>
                                            </g>
                                        </g>
                                    </g>
                                </g>
                                <path d="M29.5135123,6.29276016 L26.5147678,6.29276016 L26.5147678,8.02837015 C25.3779661,6.72571593 24.4143058,6.06774282 23.3637907,6.06774282 C22.4420995,6.06774282 21.802033,6.50236483 21.4815452,7.28769124 C21.2868132,7.76537025 21.1486334,8.51089638 21.1486334,9.6062938 L21.1486334,22.2292286 L24.1473779,22.2292286 L24.1473779,10.3951799 L24.1473779,9.29061819 C24.2173768,8.84774075 24.4054423,8.6860403 24.7867247,8.6860403 C25.3608073,8.6860403 25.8801558,9.18469872 26.5147678,10.0796558 L26.5147678,22.2292286 L29.5135123,22.2292286 L29.5135123,6.29276016" id="path3019" fill="#100F0D" fill-rule="nonzero"></path>
                                <path d="M15.9403754,11.0263797 C16.0982519,9.448456 15.6087893,8.66547746 14.6775149,8.66547746 C13.746392,8.66547746 13.2573839,9.448456 13.4152604,11.0263797 L13.4152604,17.3377713 C13.2573839,18.915695 13.746695,19.6551621 14.6778179,19.6551621 C15.6089408,19.6551621 16.0998807,18.915695 15.9420042,17.3377713 L15.9403754,11.0263797 Z M18.9391199,17.0222472 C18.9391199,18.7253278 18.59689,20.0041245 17.9921639,20.8091428 C17.1933118,21.8990492 15.9403754,22.3453349 14.6778179,22.3453349 C13.2486719,22.3453349 12.1611498,21.8990492 11.3634719,20.8091428 C10.7489732,20.0041245 10.4194704,18.711392 10.4194704,17.0083493 L10.4165159,11.3419038 C10.4165159,9.64844195 10.7096178,8.47821547 11.3241164,7.68103608 C12.1217943,6.59438639 13.4152604,6.01866465 14.6778179,6.01866465 C15.9403754,6.01866465 17.2564927,6.59438639 18.0553448,7.68103608 C18.6600709,8.47821547 18.9391199,9.64844195 18.9391199,11.3419038 L18.9391199,17.0222472 L18.9391199,17.0222472 Z" id="path3021" fill="#100F0D" fill-rule="nonzero"></path>
                                <path d="M7.10216996,14.9709616 L7.10216996,6.29276016 L3.94570048,6.29276016 L3.94570048,14.9709616 C3.94570048,14.9709616 0.674706146,25.6108128 9.49602001e-16,27.5938964 L3.31434598,27.5938964 L5.52935181,19.282418 L7.73352446,27.5938964 L11.0478704,27.5938964 L7.10216996,14.9709616" id="path3023" fill="#100F0D" fill-rule="nonzero"></path>
                                <path d="M69.4433133,17.8176467 C69.4433133,19.2923018 69.8478529,19.6945079 70.8020058,19.6945079 C71.7493406,19.6945079 72.1266078,19.2563641 72.1266078,17.7979549 L72.1266078,16.0755233 L69.4433133,16.0725695 L69.4433133,17.8176467 Z M75.130731,13.7087135 L75.1299735,16.9343912 C75.1299735,18.6195598 74.7981601,19.8521943 74.2008202,20.6498281 C73.4000743,21.7287904 72.2622119,22.2997785 70.8285206,22.2997785 C69.3698295,22.2997785 68.232346,21.7287904 67.4058428,20.6498281 C66.7990334,19.8521943 66.4448719,18.5495779 66.4448719,16.8644094 L66.4448719,11.3419038 C66.4448719,9.66635397 66.8342602,8.49343879 67.4410696,7.70440123 C68.267194,6.6270673 69.4050563,6.08936599 70.8997317,6.08936599 C72.3925131,6.08936599 73.5648446,6.6535377 74.3553635,7.79850558 C74.7027069,8.30379106 74.9273249,8.87686197 75.0235356,9.50999305 C75.0492928,9.79609301 75.1250493,10.4475527 75.1250493,11.3680712 L75.1250493,11.8152657 L72.1266078,11.8152657 C72.1266078,10.6691239 72.131532,9.98778567 72.105396,9.83203065 C71.9421408,9.0685925 71.5322983,8.6860403 70.8285206,8.6860403 C69.8478529,8.6860403 69.433465,9.41914542 69.4433133,10.8752068 L69.4433133,13.7087135 L75.130731,13.7087135 L75.130731,13.7087135 Z" id="path3025" fill="#FFFFFF" fill-rule="nonzero"></path>
                                <path d="M61.5521396,10.8685418 C61.5521396,9.29061819 61.1801753,8.6860403 60.3563236,8.6860403 C59.8854971,8.6860403 59.3438383,8.9280608 58.8658149,9.40570194 L58.8692239,18.9748463 C59.3468685,19.4463148 59.8854971,19.6945079 60.3563236,19.6945079 C61.1801753,19.6945079 61.5521396,19.2312191 61.5521396,17.6532955 L61.5521396,10.8685418 L61.5521396,10.8685418 Z M61.8847106,22.3245069 C60.8335894,22.3245069 59.7889076,21.6781975 58.8658149,20.5428862 L58.8692239,27.4362101 L56.0283559,27.4362101 L56.0283559,6.29276016 L58.8692239,6.29276016 L58.8730117,7.88132499 C59.8279222,6.70045734 60.8688162,6.08936599 61.8847106,6.08936599 C63.0225729,6.08936599 63.8540003,6.69822307 64.2350554,7.87053234 C64.4259617,8.53899515 64.5509599,9.5681219 64.5509599,11.0263797 L64.5509599,17.3377713 C64.5509599,18.8312094 64.359296,19.8521943 64.1683897,20.4864993 C63.7873346,21.6674048 63.0225729,22.3245069 61.8847106,22.3245069 L61.8847106,22.3245069 Z" id="path3027" fill="#FFFFFF" fill-rule="nonzero"></path>
                                <path d="M53.6609659,6.29276016 L50.6621457,6.29276016 L50.6621457,8.02837015 C49.5254197,6.72571593 48.5617973,6.06774282 47.5110549,6.06774282 C46.5894774,6.06774282 45.9493351,6.50236483 45.6288852,7.28769124 C45.434191,7.76537025 45.2959355,8.51089638 45.2959355,9.6062938 L45.2959355,22.0713908 L48.2947557,22.0713908 L48.2947557,10.3951799 L48.2947557,9.29061819 C48.3648305,8.84774075 48.5527065,8.6860403 48.9341404,8.6860403 C49.5083745,8.6860403 50.0276852,9.18469872 50.6621457,10.0796558 L50.6621457,22.0713908 L53.6609659,22.0713908 L53.6609659,6.29276016" id="path3029" fill="#FFFFFF" fill-rule="nonzero"></path>
                                <polyline id="path3031" fill="#FFFFFF" fill-rule="nonzero" points="42.297494 6.29276016 39.1407215 6.29276016 39.1407215 24.4382006 35.8264513 24.4382006 35.8264513 27.4328019 45.7694135 27.4362101 45.7694135 24.4382006 42.297494 24.4382006 42.297494 6.29276016"></polyline>
                            </g>
                        </g>
                    </g>
                </g>
            </g>
        </g>
    </g>
</svg>