<?xml version="1.0" encoding="UTF-8"?>
<svg width="20px" height="20px" viewBox="0 0 20 20" version="1.1" xmlns="http://www.w3.org/2000/svg" xmlns:xlink="http://www.w3.org/1999/xlink">
    <g id="Symbols" stroke="none" stroke-width="1" fill="none" fill-rule="evenodd">
        <g id="Icons-/-Social-/-Twitter" fill-rule="nonzero" fill="#FFFFFF">
            <path d="M6.19140387,18 C13.6209273,18 17.6838447,11.8449774 17.6838447,6.50755913 C17.6838447,6.33273477 17.6802839,6.15870317 17.6724421,5.98545773 C18.4611106,5.4153148 19.1465875,4.70382199 19.6872528,3.89388106 C18.963525,4.21557163 18.1847001,4.43212843 17.3676903,4.52977718 C18.2016124,4.02972123 18.8418357,3.23869433 19.1438789,2.29570111 C18.3634684,2.75835179 17.4992231,3.09460941 16.5790219,3.27615245 C15.8419492,2.49105147 14.7925934,2 13.6306651,2 C11.4000904,2 9.59126638,3.80889011 9.59126638,6.03860597 C9.59126638,6.35556638 9.62670295,6.66387245 9.69600377,6.95959998 C6.33897696,6.79068172 3.3622128,5.18341141 1.36999593,2.73945097 C1.02310867,3.3363629 0.823087611,4.02974105 0.823087611,4.7695884 C0.823087611,6.17093156 1.53617916,7.40804036 2.6205487,8.13176817 C1.95786375,8.11129371 1.33534552,7.92938204 0.791244908,7.62659229 C0.790650335,7.64353895 0.790650335,7.66006082 0.790650335,7.67817284 C0.790650335,9.63431893 2.18294277,11.2675457 4.03114078,11.6376345 C3.69173192,11.7301633 3.33463121,11.7797772 2.96606184,11.7797772 C2.70619368,11.7797772 2.45301116,11.7541999 2.20692389,11.7069353 C2.7211505,13.3118207 4.21228743,14.4796948 5.98015199,14.5123303 C4.59770305,15.595907 2.85619791,16.2412833 0.963472969,16.2412833 C0.637845002,16.2412833 0.316161039,16.2227617 0,16.1853709 C1.7876176,17.3311797 3.91024421,17.9997443 6.19162188,17.9997443" id="Shape"></path>
        </g>
    </g>
</svg>