<?xml version="1.0" encoding="UTF-8" standalone="no"?>
<!DOCTYPE svg PUBLIC "-//W3C//DTD SVG 1.1//EN" "http://www.w3.org/Graphics/SVG/1.1/DTD/svg11.dtd">
<svg version="1.1" xmlns="http://www.w3.org/2000/svg" xmlns:xlink="http://www.w3.org/1999/xlink" preserveAspectRatio="xMidYMid meet" viewBox="0 0 640 640" width="640" height="640">
	<defs>
		<path d="M2.17 7.92L13.47 7.92L13.47 16L2.17 16L2.17 7.92Z" id="a77BscuZJn"></path>
		<path d="M7.35 0.19C7.61 -0.07 8.03 -0.07 8.28 0.19C9.83 1.74 14 5.91 15.55 7.46C15.72 7.63 15.6 7.92 15.36 7.92C13.85 7.92 9.98 7.92 8.48 7.92C8.48 7.92 7.16 7.92 7.16 7.92C5.65 7.92 1.78 7.92 0.28 7.92C0.03 7.92 -0.09 7.63 0.08 7.46C1.63 5.91 5.8 1.74 7.35 0.19Z" id="k1b1Lrv3N"></path>
	</defs>
	<g>
		<g>
			<use xlink:href="#a77BscuZJn" opacity="1" fill="#ffffff" fill-opacity="1"></use>
		</g>
		<g>
			<use xlink:href="#k1b1Lrv3N" opacity="1" fill="#ffffff" fill-opacity="1"></use>
		</g>
	</g>
</svg>