<?xml version="1.0" encoding="UTF-8"?>
<svg width="20px" height="20px" viewBox="0 0 20 20" version="1.1" xmlns="http://www.w3.org/2000/svg" xmlns:xlink="http://www.w3.org/1999/xlink">
    <g id="Symbols" stroke="none" stroke-width="1" fill="none" fill-rule="evenodd">
        <g id="Icons-/-Social-/-Facebook" fill-rule="nonzero" fill="#FFFFFF">
            <path d="M17.1169849,18.0001242 L2.88307717,18.0001242 C2.39522422,18.0001242 2,17.6046516 2,17.1169849 L2,2.88307717 C2,2.3952863 2.3952863,2 2.88307717,2 L17.1169849,2 C17.6046516,2 18,2.3952863 18,2.88307717 L18,17.1169849 C18,17.6047137 17.6045895,18.0001242 17.1169849,18.0001242 Z M13.0397684,18.0001242 L13.0397684,11.8039943 L15.1195071,11.8039943 L15.4309184,9.38925255 L13.0397684,9.38925255 L13.0397684,7.84759251 C13.0397684,7.14846906 13.2339039,6.67203949 14.2364299,6.67203949 L15.5151038,6.67148073 L15.5151038,4.51171634 C15.293962,4.48228871 14.5349278,4.41654218 13.6518507,4.41654218 C11.8082781,4.41654218 10.5461184,5.54186957 10.5461184,7.60844647 L10.5461184,9.38925255 L8.4610406,9.38925255 L8.4610406,11.8039943 L10.5461184,11.8039943 L10.5461184,18.0001242 L13.0397684,18.0001242 Z" id="Combined-Shape"></path>
        </g>
    </g>
</svg>