<?xml version="1.0" encoding="UTF-8"?>
<svg width="921px" height="296px" viewBox="0 0 921 296" version="1.1" xmlns="http://www.w3.org/2000/svg" xmlns:xlink="http://www.w3.org/1999/xlink">
    <!-- Generator: Sketch 42 (36781) - http://www.bohemiancoding.com/sketch -->
    <title>Map</title>
    <desc>Created with Sketch.</desc>
    <defs>
        <rect id="path-1" x="118" y="152" width="10" height="10" rx="5"></rect>
        <mask id="mask-2" maskContentUnits="userSpaceOnUse" maskUnits="objectBoundingBox" x="0" y="0" width="10" height="10" fill="white">
            <use xlink:href="#path-1"></use>
        </mask>
        <rect id="path-3" x="96" y="100" width="10" height="10" rx="5"></rect>
        <mask id="mask-4" maskContentUnits="userSpaceOnUse" maskUnits="objectBoundingBox" x="0" y="0" width="10" height="10" fill="white">
            <use xlink:href="#path-3"></use>
        </mask>
        <rect id="path-5" x="409" y="140" width="10" height="10" rx="5"></rect>
        <mask id="mask-6" maskContentUnits="userSpaceOnUse" maskUnits="objectBoundingBox" x="0" y="0" width="10" height="10" fill="white">
            <use xlink:href="#path-5"></use>
        </mask>
        <rect id="path-7" x="517" y="184" width="10" height="10" rx="5"></rect>
        <mask id="mask-8" maskContentUnits="userSpaceOnUse" maskUnits="objectBoundingBox" x="0" y="0" width="10" height="10" fill="white">
            <use xlink:href="#path-7"></use>
        </mask>
        <rect id="path-9" x="526" y="136" width="10" height="10" rx="5"></rect>
        <mask id="mask-10" maskContentUnits="userSpaceOnUse" maskUnits="objectBoundingBox" x="0" y="0" width="10" height="10" fill="white">
            <use xlink:href="#path-9"></use>
        </mask>
        <rect id="path-11" x="532" y="105" width="10" height="10" rx="5"></rect>
        <mask id="mask-12" maskContentUnits="userSpaceOnUse" maskUnits="objectBoundingBox" x="0" y="0" width="10" height="10" fill="white">
            <use xlink:href="#path-11"></use>
        </mask>
        <rect id="path-13" x="603" y="87" width="10" height="10" rx="5"></rect>
        <mask id="mask-14" maskContentUnits="userSpaceOnUse" maskUnits="objectBoundingBox" x="0" y="0" width="10" height="10" fill="white">
            <use xlink:href="#path-13"></use>
        </mask>
        <rect id="path-15" x="461" y="60" width="10" height="10" rx="5"></rect>
        <mask id="mask-16" maskContentUnits="userSpaceOnUse" maskUnits="objectBoundingBox" x="0" y="0" width="10" height="10" fill="white">
            <use xlink:href="#path-15"></use>
        </mask>
        <rect id="path-17" x="427" y="96" width="10" height="10" rx="5"></rect>
        <mask id="mask-18" maskContentUnits="userSpaceOnUse" maskUnits="objectBoundingBox" x="0" y="0" width="10" height="10" fill="white">
            <use xlink:href="#path-17"></use>
        </mask>
    </defs>
    <g id="Pages" stroke="none" stroke-width="1" fill="none" fill-rule="evenodd">
        <g id="Sponsorship" transform="translate(-230.000000, -1508.000000)">
            <g id="2016" transform="translate(0.000000, 480.000000)">
                <g id="Map" transform="translate(230.000000, 1028.000000)">
                    <g id="w" opacity="0.600000024" fill="#FFFFFF">
                        <path d="M570.851023,296 C572.601559,293.921902 575.216899,290.733495 576.417711,288.849821 C578.309654,285.879594 580.200397,283.181568 581.550927,282.102357 C582.902658,281.023147 586.145132,278.591326 588.035875,275.8933 C589.927818,273.195274 593.710504,268.067825 593.981811,267.256019 C594.250716,266.44781 596.411565,263.748585 596.411565,263.748585 C596.411565,263.748585 599.383933,260.238753 599.925346,258.350134 C600.464358,256.460317 603.165419,245.934417 602.625206,246.474023 C602.087395,247.014827 598.843721,247.553233 597.762096,247.823036 C596.682872,248.094037 599.385134,249.172049 591.547254,248.633643 C583.712977,248.092838 579.660184,249.44305 579.660184,249.44305 C577.226829,248.902246 575.336086,251.601471 574.524567,247.823036 C573.714249,244.045799 573.172836,241.886179 571.5534,239.186954 C569.931563,236.487728 568.849938,235.408518 566.420183,231.898686 C563.989228,228.391252 564.256933,230.008868 562.094884,227.312041 C559.934035,224.612816 559.392622,225.421025 558.042092,221.913591 C556.691561,218.404957 555.611137,219.75517 553.989299,214.896324 C552.367462,210.03628 551.287038,209.496675 550.47672,206.798648 C549.665201,204.100622 548.585977,203.288816 548.044564,200.860593 C547.504352,198.43117 541.290711,186.016652 540.479192,185.206045 C539.667673,184.397837 538.317143,180.077397 538.587249,180.888004 C538.858555,181.697412 542.641241,184.396637 542.641241,184.396637 C542.641241,184.396637 544.80209,183.58603 545.613609,183.58603 C546.423927,183.58603 549.666401,186.556257 549.666401,187.634269 C549.666401,188.714678 555.343431,193.843326 556.692762,197.621762 C558.043292,201.400198 559.66753,204.099423 559.935235,205.178634 C560.202941,206.257844 562.907603,210.577084 563.989228,212.197099 C565.068452,213.817114 568.581032,217.054745 569.121244,218.67476 C569.661456,220.294775 574.797074,225.692026 574.797074,229.200659 C574.797074,232.709293 577.226829,237.297136 577.498135,238.376347 C577.769442,239.455557 582.631352,240.806968 582.631352,240.806968 L589.1175,239.186954 C589.1175,239.186954 598.843721,232.977896 599.925346,232.977896 C601.00457,232.977896 609.653968,228.929658 609.653968,228.929658 C609.653968,228.929658 613.165347,225.692026 615.596302,223.803408 C618.028458,221.913591 620.730719,218.406157 621.272132,216.784943 C621.811144,215.164928 622.892769,214.896324 625.053618,212.465703 C627.215667,210.03628 630.188035,207.608056 628.297292,205.988041 C626.405349,204.369226 625.323724,204.908831 622.622663,202.209606 C619.920401,199.51158 620.190507,200.051185 618.298564,196.541353 C616.406621,193.033919 618.56867,188.984481 614.514677,193.033919 C610.463086,197.082157 612.083722,198.161367 608.02973,198.973173 C603.978138,199.781382 602.3551,202.480607 600.464358,199.781382 C598.573615,197.082157 596.682872,198.702172 595.600047,194.652734 C594.519622,190.604496 593.708103,190.333494 593.439198,188.715878 C593.170292,187.095863 593.439198,187.095863 591.277148,183.046425 C589.116299,178.998187 590.736936,172.790328 592.087467,176.298962 C593.439198,179.807595 595.600047,180.3472 599.113827,182.776623 C602.625206,185.204846 604.248244,187.095863 607.489517,187.365665 C610.731991,187.634269 613.434253,187.365665 613.974465,187.904071 C614.514677,188.444876 615.05489,187.635468 616.406621,188.173874 C617.758352,188.714678 618.296163,187.365665 618.837576,189.522887 C619.377788,191.682507 622.350156,191.95231 623.700686,193.301323 C625.052417,194.650336 625.052417,194.11193 628.566198,194.650336 C632.079978,195.19114 636.944289,195.19114 636.944289,195.19114 L642.076305,194.920139 L648.021041,195.458545 C648.021041,195.458545 652.34634,197.887967 653.425564,197.887967 C654.505988,197.887967 654.776094,200.858194 657.478356,202.47701 C660.180618,204.097025 660.72083,204.365628 662.341466,206.255446 C663.965705,208.145263 663.693198,208.954671 665.854046,210.843289 C668.017296,212.734306 671.531077,210.574686 672.071289,209.766477 C672.6091,208.95587 675.311362,207.606857 674.773551,209.766477 C674.232138,211.924898 677.473411,211.114291 676.663093,216.244138 C675.852775,221.370388 675.311362,220.021375 676.663093,223.531207 C678.013623,227.03984 683.958359,237.835542 684.229665,241.074373 C684.500972,244.313203 686.120408,243.233993 686.390514,246.20422 C686.661821,249.172049 688.281257,250.251259 688.281257,252.410879 C688.281257,254.570499 690.174401,255.108905 690.443307,256.730119 C690.715814,258.350134 693.686981,256.998723 694.497299,256.730119 C695.308818,256.459118 699.090304,252.950484 699.090304,252.950484 C699.090304,252.950484 700.714542,252.412078 700.442035,249.711654 C700.170728,247.014827 700.442035,247.553233 700.442035,243.504995 C700.442035,239.456756 698.821398,239.456756 699.631716,235.409717 C700.442035,231.361479 702.602884,228.930857 703.144296,227.042239 C703.684508,225.15362 705.846558,221.91479 706.925782,221.643788 C708.006206,221.373985 713.952142,218.406157 715.303873,216.51514 C716.654404,214.626522 718.816453,212.466902 720.978503,210.308481 C723.139351,208.15006 726.922037,205.450834 727.733556,206.260242 C728.543875,207.06965 728.273769,206.799848 729.6255,206.799848 C730.97603,206.799848 733.408186,207.880257 735.298928,208.15006 C737.190872,208.419862 740.974758,213.007706 741.785077,215.437129 C742.595395,217.866551 742.055183,217.325747 745.02755,220.835579 C747.999918,224.343013 750.70218,222.183393 750.70218,226.502633 C750.70218,230.821873 750.70218,230.550872 752.053911,232.170887 C753.404441,233.790901 755.025078,229.201859 756.645715,229.742663 C758.266351,230.283467 758.536457,229.203058 759.886988,233.521099 C761.237519,237.840339 762.047837,237.840339 762.320344,242.15838 C762.58925,246.476421 762.049037,242.428182 762.049037,245.935616 C762.049037,249.445449 761.777731,249.715251 762.320344,252.952883 C762.859356,256.194112 764.748898,257.273322 764.481193,257.812927 C764.481193,257.812927 766.10183,253.225084 765.560417,249.985054 C765.022606,246.747423 765.560417,242.159579 766.912148,240.810566 C768.262678,239.459155 769.61561,238.111341 770.694834,241.619974 C771.776459,245.127408 772.316671,242.429382 774.747626,246.47762 C777.180982,250.527057 779.341831,249.715251 779.611937,251.605069 C779.882043,253.494886 781.236175,253.765888 783.124517,255.383505 C785.01646,257.003519 786.637097,255.114901 788.799146,253.494886 C790.962396,251.874871 796.904731,245.936816 797.177238,243.507393 C797.446143,241.079169 799.878299,241.617575 795.5542,235.412115 C791.230101,229.204257 791.230101,227.044637 786.637097,223.266201 C782.046494,219.487765 779.343031,219.217963 782.856812,214.359117 C786.369392,209.500272 787.991229,206.262641 790.152078,207.612853 C792.314127,208.961866 796.094412,208.690864 796.094412,214.090514 C796.094412,219.487765 795.013988,225.425821 798.796674,218.94816 C802.57936,212.470499 804.472504,208.692063 803.389678,209.773672 C802.310454,210.852882 805.821834,207.614052 805.821834,207.614052 C805.821834,207.614052 806.09314,205.184629 810.687345,204.105419 C815.279149,203.02381 816.62968,202.485404 818.252717,201.675996 C819.873354,200.865389 824.467559,195.466939 825.277877,193.038715 C826.088196,190.609292 828.250245,186.291251 827.710033,184.402633 C827.169821,182.511616 824.466359,173.337128 823.926146,173.605732 C823.387135,173.876734 823.657241,173.876734 820.145861,170.098298 C816.63088,166.319862 814.199925,163.620637 813.659713,162.000622 C813.119501,160.380607 811.76777,160.110805 813.388406,157.952384 C815.011444,155.793963 815.821762,156.063765 816.091869,154.173948 C816.360774,152.28533 818.521623,150.665315 814.468831,152.015527 C810.417239,153.36454 813.388406,152.556331 809.875827,152.286529 C806.363247,152.015527 797.177238,154.175147 801.771443,148.508093 C806.363247,142.83984 807.712577,139.332406 808.524096,139.332406 C809.336815,139.332406 813.389607,134.743363 813.658513,139.061404 C813.929819,143.379445 815.549255,142.299035 815.820562,144.998261 C816.091869,147.697486 821.495191,142.030432 821.495191,142.030432 C821.495191,142.030432 823.385934,142.570037 824.736465,143.91905 C826.088196,145.268063 826.088196,149.587303 826.088196,149.587303 C826.088196,149.587303 825.007771,148.237091 827.980139,150.396711 C830.953707,152.55753 834.19378,151.475922 834.19378,156.064964 C834.19378,160.652808 834.19378,160.92381 836.085723,162.00302 C837.978867,163.082231 839.867209,162.543825 841.491447,161.193612 C843.112084,159.844599 845.813145,154.985754 845.813145,154.985754 C845.813145,154.985754 846.083251,153.095937 841.760353,150.396711 C837.437454,147.698685 834.735193,145.810067 833.115757,144.459855 C831.492719,143.110841 832.034132,139.062603 833.653568,137.441389 C835.277806,135.821374 836.085723,135.011966 835.545511,132.853546 C835.004098,130.692726 836.35703,129.073911 840.409822,129.343713 C844.462614,129.614715 845.272933,129.07511 845.272933,129.07511 C845.272933,129.07511 846.085652,129.613516 846.085652,127.9947 C846.085652,126.375884 851.217668,118.817814 849.865937,118.817814 C848.515406,118.817814 850.139645,116.929196 849.325725,113.960168 C848.515406,110.989941 852.027986,106.403296 849.056819,104.243676 C846.084451,102.084056 845.272933,101.003646 843.38219,97.766015 C841.491447,94.5259854 841.759152,93.9875793 834.735193,93.1769723 C827.710033,92.3675645 824.467559,94.7969871 822.845722,92.6385662 C821.223885,90.4789461 820.414767,95.8761976 819.334342,89.3985365 C818.253918,82.9208755 820.95618,78.6016354 820.95618,78.6016354 C820.95618,78.6016354 825.279078,75.9036092 826.358302,74.0137918 C827.438726,72.1239743 831.761625,71.3145665 835.277806,72.6647787 C838.790386,74.0137918 843.922402,73.7439892 848.247701,74.5557953 C852.5706,75.364004 852.300493,78.0632293 854.462543,74.5557953 C856.623392,71.0447639 854.462543,69.4271473 856.083179,67.5373299 C857.706217,65.6475124 859.595759,62.6784845 860.94629,64.5671028 C862.296821,66.4581194 865.002684,68.3455386 867.164733,65.9161159 C869.325582,63.4878924 870.1359,63.2180898 870.1359,63.2180898 L871.213924,64.2984993 C871.213924,64.2984993 873.646079,62.947088 873.646079,65.3753116 C873.646079,67.8059334 876.079435,70.5051586 874.727704,72.393777 C873.374773,74.2847935 871.486431,74.0137918 871.486431,78.6016354 C871.486431,83.1918772 871.486431,82.3812703 874.456398,86.1609051 C877.429966,89.9381418 879.320709,86.6993113 879.860921,90.7487488 C880.402333,94.7969871 880.940145,93.9887784 883.914913,96.6868046 C886.887281,99.3848307 886.344668,99.3848307 888.507918,101.004846 C890.669967,102.62486 891.751592,104.244875 891.751592,101.54565 C891.751592,98.8464246 892.021698,97.4974115 891.751592,95.0679889 C891.479085,92.6397653 893.913641,90.7487488 892.289403,86.7005104 C890.668767,82.652272 892.020498,82.9220746 888.778024,79.9530467 C885.53435,76.9852179 883.3723,80.4938511 882.294277,76.174611 C881.212652,71.85657 887.426293,69.9667525 889.04933,69.4271473 C890.669967,68.8887412 893.099722,65.6487115 893.639934,67.8083316 C894.181347,69.9667525 889.588342,77.7946258 897.425021,69.4271473 C905.259299,61.0608679 901.747919,64.5695011 901.747919,64.5695011 C901.747919,64.5695011 905.800711,64.0298958 906.61103,64.5695011 C907.420148,65.1103054 909.585798,62.1400784 908.771879,62.4110801 C907.96156,62.6820819 900.128483,58.09184 900.128483,58.09184 L894.451453,54.8542086 C894.451453,54.8542086 896.344597,53.5039964 897.695127,53.7749982 C899.046858,54.0448008 899.318165,51.0757729 900.669896,50.8047711 C902.020426,50.5349685 911.206435,52.6957877 913.099579,53.7749982 C914.990322,54.8542086 921.744175,55.1240113 920.932656,54.584406 C920.122338,54.0436017 915.80064,50.8059703 915.529333,49.7255607 C915.260428,48.6463502 905.801912,46.4867302 902.830745,46.7565328 C899.857176,47.0251363 897.157316,47.8345441 894.72516,47.0251363 C892.291804,46.2157284 888.780425,44.0561084 886.888482,44.0561084 C884.997739,44.0561084 861.219998,39.4682648 860.139573,39.7380674 C859.059149,40.00787 857.436111,45.1353188 856.625793,44.325911 C855.815474,43.5165031 854.464944,43.515304 850.679857,42.4360935 C846.899572,41.3568831 841.763954,40.5462761 835.0077,40.00787 C828.253847,39.4682648 823.662043,40.5474752 821.770099,38.3878552 C819.878156,36.2294342 815.826564,37.0388421 811.232359,36.7678403 C806.639355,36.4992369 801.234832,36.7678403 798.802676,36.7678403 C796.370521,36.7678403 790.698293,36.4992369 789.346561,36.2282351 C787.99483,35.9572334 786.374194,34.0686151 784.753557,33.8000116 C783.130519,33.5290098 783.400626,32.9906037 780.159352,32.4509985 C776.916878,31.9101941 777.186984,28.4027601 776.10656,31.3705889 C775.026136,34.3408159 775.565147,33.5302089 773.944511,34.6094194 C772.322673,35.689829 770.702037,37.8482499 769.620412,37.8482499 C768.541188,37.8482499 764.21829,38.1180526 763.40557,37.5784473 C762.594052,37.0388421 761.243521,36.4992369 758.541259,36.4992369 C755.838998,36.4992369 755.838998,36.7678403 752.326418,36.2282351 C748.813838,35.6886299 746.111576,35.9572334 742.869102,34.3396168 C739.626629,32.719602 739.626629,31.6403915 736.924367,31.9101941 C734.224506,32.1811959 734.224506,31.3705889 730.439419,31.3705889 C726.657934,31.3705889 722.064929,33.5302089 719.631573,33.8000116 C717.201819,34.0698142 711.797296,33.5290098 709.905352,32.719602 C708.012209,31.9101941 707.473197,30.0215758 700.446836,30.8297845 C693.421677,31.6403915 689.368884,31.6403915 690.719415,29.4807715 C692.071146,27.3223505 693.691783,25.1627305 694.502101,24.8929278 C695.31362,24.6231252 697.203162,23.2741121 695.851431,22.7345069 C694.502101,22.1937026 693.15037,21.3854938 689.909097,21.1144921 C686.665422,20.8446895 686.934328,22.1937026 682.072418,21.6540973 C677.209307,21.1144921 684.77468,19.765479 674.778352,20.0352816 C664.780825,20.3062834 662.348669,21.1144921 661.268245,21.1144921 C660.18662,21.1144921 658.834889,18.9560712 656.133828,22.1937026 C653.431566,25.4325331 649.646479,27.3211514 644.244357,27.590954 C638.841034,27.8619558 638.569728,27.0513488 633.437711,28.9399671 C628.303294,30.8285854 625.05962,28.4003619 626.141245,32.7184029 C627.220469,37.0364438 628.5734,38.6564587 628.5734,39.4658665 C628.5734,40.2752744 626.141245,45.6737249 623.170078,42.4348944 C620.195309,39.1960639 614.791986,26.5105444 617.224142,35.1478255 C619.655097,43.7839075 625.05842,46.7541345 619.926403,48.1031476 C614.793187,49.4521607 615.330998,47.5635424 614.52068,47.022738 C613.711562,46.4831328 614.52068,42.704697 614.250574,40.545077 C613.979267,38.386656 613.440255,37.0364438 612.359831,35.9572334 C611.280607,34.8768238 611.548312,33.2580081 609.387463,32.7184029 C607.225414,32.1787976 609.117357,31.098388 605.604777,31.098388 C602.092197,31.098388 599.12103,28.938768 599.931348,33.7976133 C600.740466,38.6552595 601.550784,35.4176281 603.711633,40.0054717 C605.872482,44.5933153 609.926475,41.3544848 606.955308,44.5933153 C603.98294,47.8321459 596.147462,46.7529354 594.255518,45.4039223 C592.363575,44.0537101 592.904988,45.9435276 589.390007,43.5141049 C585.877427,41.0846822 586.960252,39.1948648 582.90746,41.0846822 C578.854668,42.9744996 577.502937,46.4831328 575.8811,45.1329206 C574.259263,43.7827084 570.477777,47.0215389 569.126046,45.4039223 C567.774315,43.7839075 562.369792,43.7839075 561.290568,45.4039223 C560.208943,47.022738 556.966469,46.7529354 552.373465,48.9125555 C547.78046,51.0709764 549.12979,49.181159 543.456362,53.7702017 C537.780532,58.3580453 534.538058,62.136481 532.648516,59.1674531 C530.756572,56.1996244 520.487738,51.0709764 524.541731,50.2603694 C528.595723,49.4509616 530.486466,47.8321459 532.648516,49.7207642 C534.810565,51.6093825 538.324345,51.0709764 538.862157,49.7207642 C539.402369,48.370552 541.835725,47.0215389 538.592051,45.4027232 C535.349577,43.7827084 535.079471,44.8619188 529.946254,42.9733005 C524.811837,41.0834831 529.946254,41.6242874 522.919894,40.5438779 C515.894734,39.4646674 512.921166,38.9250622 511.030423,38.3854569 C509.14088,37.8458517 506.437418,38.3854569 503.736357,38.1156543 C501.032895,37.8458517 499.143353,37.3062465 496.709997,37.5760491 C494.279042,37.8458517 492.928511,37.3062465 489.684837,39.7356691 C486.441163,42.1650918 484.009007,43.2443023 481.848158,45.1329206 C479.687309,47.0215389 474.01388,50.8011738 472.392043,52.151386 C470.770206,53.5003991 465.095577,57.8184401 464.555365,59.4384549 C464.015152,61.0584697 465.095577,62.4074828 462.933527,63.4866932 C460.771478,64.5659037 458.610629,64.5659037 456.988792,64.8357063 C455.366955,65.1055089 456.988792,62.4062837 455.366955,65.1055089 C453.746318,67.8047342 454.28653,77.5212258 455.637061,76.1710136 C456.987592,74.8208014 456.177273,70.5039595 462.122009,74.553397 C468.066744,78.6004363 471.850631,78.060831 471.579324,81.8392668 C471.309218,85.6177025 475.632116,85.3478999 476.172328,86.1585069 C476.712541,86.9667156 479.414802,85.0780973 479.414802,85.0780973 C479.414802,85.0780973 485.359538,81.2996616 485.359538,79.4110432 C485.359538,77.5212258 489.142224,73.2031848 489.142224,73.2031848 C489.142224,73.2031848 486.438762,71.8541717 486.438762,69.1549464 C486.438762,66.4569203 487.251481,65.6451142 487.790493,62.9458889 C488.330705,60.2478627 484.818125,62.947088 492.92491,57.8172409 C501.029294,52.6897921 501.570706,56.1996244 501.570706,56.1996244 C501.570706,56.1996244 502.64993,57.2788348 501.2994,58.8976505 C499.948869,60.5176653 497.516714,64.8369055 496.976502,65.3753116 C496.435089,65.9161159 499.408657,70.2341569 500.757987,70.2341569 C502.109718,70.2341569 504.81198,69.1537473 506.433817,69.4235499 C508.055654,69.6945517 510.756715,68.6153412 511.567034,69.1549464 C512.378552,69.6945517 514.269295,71.3133674 512.917564,72.6635796 C511.567034,74.0125927 508.593465,75.6314084 506.433817,75.0930023 C504.270567,74.5545961 501.028093,70.7737621 502.920036,76.1722127 C504.81198,81.5706633 502.64993,82.9196764 501.028093,82.6498738 C499.408657,82.3800711 495.894877,79.682045 496.435089,83.7302834 C496.976502,87.7773226 492.923709,90.4765479 492.112191,90.4765479 C491.300672,90.4765479 489.681236,90.2067453 489.681236,90.2067453 C489.681236,90.2067453 487.24788,89.9357435 485.898549,89.9357435 C484.546818,89.9357435 481.844557,91.2847566 481.034238,92.3651662 C480.22272,93.4443767 479.142295,92.6361679 477.791765,92.6361679 C476.441234,92.6361679 477.791765,91.0161531 475.089503,90.4765479 C472.388442,89.9369427 470.766605,89.3973374 469.145968,90.4765479 C467.524131,91.5557584 465.093176,92.0953636 464.011551,91.2859557 C462.931127,90.4765479 464.552964,88.5855313 462.389714,89.66714 C460.228865,90.7463505 458.607028,93.7153784 457.796709,93.9863802 C456.986391,94.2549836 460.228865,93.9863802 456.986391,94.2549836 C453.743917,94.5259854 452.393387,95.3365924 450.77155,95.8749985 C449.149712,96.4158028 451.311762,99.6534342 448.339394,100.732645 C445.367026,101.811855 447.530276,99.3836316 444.556708,101.811855 C441.58434,104.242477 441.042928,106.400898 439.963704,106.670701 C438.882079,106.941702 439.153385,107.480108 436.72123,107.749911 C434.289074,108.019714 434.560381,108.289516 433.207449,108.559319 C431.856919,108.829121 433.478756,109.369926 430.506388,108.829121 C427.53282,108.289516 425.371971,109.369926 425.912183,110.449136 C426.452396,111.528347 436.449923,114.497375 428.884551,114.227572 C421.319179,113.957769 423.751334,115.306782 425.371971,116.385993 C426.993808,117.465203 427.802926,118.544414 428.614445,118.815416 C429.425964,119.085218 430.775294,122.325248 430.775294,122.325248 C430.775294,122.325248 432.937343,122.054246 431.586813,123.944064 C430.236282,125.833881 432.127025,126.373486 430.775294,128.802909 C429.424763,131.232332 429.424763,129.612317 428.344339,130.151922 C427.263914,130.690328 425.642077,132.581345 422.668509,130.96133 C419.696141,129.341315 417.536493,128.531907 414.022712,128.263304 C410.510133,127.992302 412.941088,127.453896 410.510133,129.341315 C408.077977,131.232332 407.537765,133.390753 407.809071,135.818976 C408.079178,138.2472 408.349284,141.487229 407.537765,143.107244 C406.727446,144.72606 406.727446,146.346075 407.266458,148.775497 C407.807871,151.203721 409.429708,152.28533 409.429708,152.28533 C409.429708,152.28533 413.212394,152.823736 414.022712,153.094737 C414.833031,153.36454 416.454868,152.555132 418.615717,153.902946 C420.777766,155.253158 422.939816,155.793963 424.290346,154.173948 C425.640877,152.555132 431.0454,150.665315 432.668438,149.046499 C434.289074,147.426484 435.369499,146.888078 434.55918,145.268063 C433.748862,143.648048 436.181018,139.59981 437.531548,138.790402 C438.882079,137.980994 441.854446,137.170387 441.854446,137.170387 L445.09692,132.312741 C445.09692,132.312741 447.799182,129.342514 449.149712,129.613516 C450.500243,129.883319 458.065615,132.583743 457.526603,129.07511 C456.986391,125.565278 458.066816,124.486067 458.877134,125.83508 C459.687452,127.184093 461.849502,126.644488 461.849502,126.644488 C461.849502,126.644488 462.929926,126.106082 463.740244,126.91549 C464.550563,127.723698 465.630987,131.23473 467.252824,132.042939 C468.874662,132.853546 470.225192,133.662953 471.306817,134.201359 C472.387241,134.742164 473.468866,134.201359 475.630916,136.091177 C477.791765,137.980994 479.953814,139.061404 480.22272,139.869613 C480.495227,140.679021 482.38597,142.568838 482.38597,142.568838 C482.38597,142.568838 484.276712,143.108443 483.7365,144.188853 C483.196288,145.268063 480.495227,148.508093 479.143496,149.046499 C477.791765,149.586104 474.280385,148.505695 475.630916,149.586104 C476.980246,150.665315 478.87339,152.015527 479.683708,151.20492 C480.495227,150.395512 485.627243,144.997062 485.627243,144.997062 C485.627243,144.997062 485.357137,145.266864 485.627243,143.646849 C485.898549,142.029233 485.627243,140.139415 486.978974,140.948823 C488.329504,141.75943 489.141023,142.838641 489.681236,141.75943 C490.221448,140.679021 490.76166,141.219825 489.409929,140.410417 C488.058198,139.59981 484.816925,135.011966 483.195087,134.742164 C481.57325,134.471162 477.519258,131.771937 477.519258,131.771937 C477.519258,131.771937 476.71014,130.962529 474.818196,128.804108 C472.926253,126.644488 472.387241,127.184093 471.844628,125.294276 C471.305617,123.405657 469.682579,120.976235 472.656147,121.51584 C475.629715,122.055445 477.519258,123.944064 480.221519,125.564078 C482.923781,127.184093 482.384769,127.722499 484.815724,129.342514 C487.246679,130.962529 487.519186,132.582544 489.408728,132.312741 C491.299471,132.042939 493.462721,133.391952 493.462721,135.821374 C493.462721,138.250797 494.001733,140.948823 494.541945,141.489628 C495.083358,142.030432 496.702794,143.109642 497.244207,144.188853 C497.784419,145.268063 498.866044,147.967289 499.675162,149.046499 C500.486681,150.125709 501.296999,150.936316 502.107317,152.286529 C502.917636,153.635542 503.187742,152.015527 503.99806,152.556331 C504.809579,153.095937 505.890003,152.824935 505.890003,151.745724 C505.890003,150.666514 506.158909,148.776696 506.158909,148.776696 C506.158909,148.776696 509.943996,147.697486 508.863571,147.156682 C507.781947,146.617076 504.538272,143.378246 504.809579,142.299035 C505.079685,141.219825 504.809579,139.061404 506.158909,139.331207 C507.51064,139.59981 508.862371,142.029233 511.834739,139.869613 C514.807106,137.709993 518.319686,136.630782 517.238061,139.869613 C516.158837,143.108443 517.510569,143.646849 517.238061,147.156682 C516.969156,150.666514 518.320887,149.586104 520.21283,151.475922 C522.103573,153.365739 523.454103,153.636741 524.804634,154.175147 C526.156365,154.715951 528.317214,154.446149 530.480464,154.715951 C532.642513,154.985754 533.993044,153.905344 535.884987,154.446149 C537.774529,154.985754 542.098628,154.175147 542.910147,154.715951 C543.721666,155.255557 546.96414,153.636741 547.233045,155.525359 C547.503151,157.415177 548.584776,155.255557 547.774458,159.573598 C546.96414,163.891639 545.882515,166.860666 545.882515,166.860666 C542.910147,172.52892 541.829722,173.879132 540.477991,174.148934 C539.128661,174.418737 538.317143,175.228145 535.886188,174.958342 C533.454032,174.687341 530.481664,174.958342 526.969084,174.148934 C523.456504,173.338328 516.970356,174.958342 514.269295,173.338328 C511.567034,171.719512 507.784347,173.068525 506.16131,171.179907 C504.540673,169.290089 501.839612,169.559892 500.757987,168.480681 C499.677563,167.401471 499.13735,164.433642 499.13735,168.751683 C499.13735,173.070923 496.705195,173.339527 496.164983,175.499147 C495.62357,177.657568 496.974101,176.578357 494.001733,176.308555 C491.029365,176.037553 490.219047,177.657568 485.896149,174.419936 C481.57205,171.181106 479.411201,171.181106 477.250352,169.830893 C475.087102,168.480681 472.926253,172.259117 470.765404,167.942275 C468.603355,163.623035 465.630987,167.131668 465.360881,163.623035 C465.090775,160.113203 465.360881,160.385404 465.630987,158.225784 C465.903494,156.066164 468.873461,154.177545 467.52293,153.368137 C466.171199,152.55873 467.251624,151.208517 465.360881,152.019124 C463.468938,152.828532 460.767877,153.098335 458.605827,153.907743 C456.443778,154.71835 463.468938,153.907743 452.931198,154.71835 C442.393458,155.527757 439.41989,156.606968 439.41989,156.606968 C439.41989,156.606968 438.609572,156.067363 437.257841,157.146573 C435.90731,158.225784 434.015367,159.845798 432.124624,159.036391 C430.233881,158.225784 429.152256,158.495586 427.53162,158.766588 C425.909782,159.036391 424.830558,157.417575 422.938615,158.766588 C421.046672,160.114402 418.885823,160.655206 418.074304,160.114402 C417.261585,159.567602 415.909854,157.409181 415.909854,157.409181 L411.855861,162.806432 L409.1548,165.505658 L403.751477,168.473487 L402.939959,170.902909 C402.939959,170.902909 400.777909,173.062529 401.049216,174.412741 C401.320522,175.762954 401.320522,178.191177 401.320522,178.191177 C401.320522,178.191177 397.537836,181.69981 395.915999,182.779021 C394.294162,183.858231 392.132113,186.287654 392.132113,186.287654 C392.132113,186.287654 390.781582,187.907669 389.971264,188.447274 C389.160945,188.98568 387.810415,190.605695 386.72879,192.22571 C385.647165,193.845725 384.56674,194.923736 384.026528,195.733144 C383.486316,196.542552 381.864479,198.432369 381.054161,201.401397 C380.243842,204.371624 378.081793,207.879058 378.081793,207.879058 L377.54038,209.228071 C377.811687,213.817114 377.810486,214.626522 378.351899,216.246537 C378.892111,217.865352 379.433524,217.324548 378.892111,220.83438 C378.351899,224.341814 378.351899,225.692026 377.811687,227.312041 C377.271474,228.929658 375.649637,231.898686 375.110626,233.250097 C374.569213,234.59911 376.19105,237.027334 376.19105,237.027334 C376.19105,237.027334 377.002569,240.537166 376.461156,241.346574 C375.920944,242.157181 376.731262,243.775996 376.731262,243.775996 C376.731262,243.775996 379.973736,245.664615 381.055361,246.745024 C382.135785,247.824235 384.027729,249.44425 384.297835,250.253657 C384.569141,251.064264 386.72999,254.8427 387.000096,255.652108 C387.270203,256.461516 389.432252,259.429345 389.972464,260.239952 C390.512676,261.050559 393.214938,264.019587 393.214938,264.019587 C393.214938,264.019587 396.727518,266.716414 397.539037,267.796823 C398.349355,268.876034 400.781511,269.415639 401.590628,270.225047 C402.402147,271.034455 404.29289,270.763453 405.373314,271.575259 C406.454939,272.384667 408.615788,271.034455 409.697413,271.575259 C410.777838,272.114864 413.751406,271.035654 414.561724,270.496048 C415.372043,269.956443 417.262785,268.067825 418.614516,268.876034 C419.965047,269.684242 420.775365,268.876034 421.85699,269.145836 C422.936214,269.415639 424.558051,268.067825 425.638476,268.067825 C426.720101,268.067825 429.421162,266.987415 430.23148,266.987415 C431.042999,266.987415 433.745261,265.366201 434.826886,265.366201 C435.90611,265.366201 437.257841,264.289389 438.608371,264.827795 C439.958902,265.366201 439.418689,263.749784 441.850845,264.557993 C444.283,265.366201 445.093319,264.557993 445.903637,265.366201 C446.715156,266.176808 447.796781,265.3686 448.607099,266.44781 C449.417418,267.525821 450.767948,268.335229 451.038054,269.415639 C451.30696,270.496048 452.928797,271.576458 452.928797,271.576458 L454.550634,271.845062 C454.550634,271.845062 456.713884,270.226246 457.252896,271.306655 C457.793108,272.385866 460.225264,272.117262 460.225264,272.117262 L462.656219,274.815289 L463.467737,275.894499 C463.467737,275.894499 465.089574,280.213739 464.818268,281.832555 C464.548162,283.451371 464.548162,286.960004 463.737843,287.769412 C462.927525,288.580018 462.387313,292.088652 462.387313,292.088652 C462.387313,292.088652 461.305688,293.167862 463.737843,295.327482 C463.993808,295.554891 464.240799,295.779272 464.478812,296 L570.851023,296 L570.851023,296 Z" id="Combined-Shape" fill-rule="nonzero"></path>
                        <path d="M824.049377,296 C824.105355,295.941145 824.16475,295.881143 824.227727,295.819978 C825.890394,294.207539 827.828737,293.671651 828.106874,291.790671 C828.38378,289.910884 827.553061,289.910884 828.38378,288.834333 C829.214498,287.76017 831.152841,288.031098 830.600259,286.954547 C830.045216,285.880383 831.152841,286.148924 830.045216,283.99821 C828.938823,281.849882 827.551831,281.043066 828.659455,278.356463 C829.76831,275.671054 830.878396,275.132779 830.600259,273.521533 C830.322122,271.9079 831.98479,271.372012 830.045216,269.491032 C828.108104,267.612439 827.276155,267.074164 825.890394,266.534695 L824.505863,266 C823.39947,267.613633 819.798459,272.447369 818.413929,272.717104 C817.028167,272.984451 815.642406,274.329543 814.534782,274.059808 C813.427157,273.790074 810.933772,274.059808 810.103053,277.552034 C809.272335,281.04426 807.886574,282.92524 807.053394,282.655505 C806.222675,282.386964 808.437924,287.758976 803.73052,285.611842 C799.023116,283.462321 800.684553,287.492822 800.12951,288.56818 C799.575698,289.64115 800.960229,292.597487 801.237135,293.671651 C801.390963,294.26312 801.711213,295.099213 802.153093,296 L824.049377,296 L824.049377,296 Z" id="Combined-Shape" fill-rule="nonzero"></path>
                        <path d="M783.451685,296 C782.669001,294.942609 781.765603,293.329295 780.502695,290.998804 C778.602981,287.500199 780.502695,290.998804 776.433257,285.346016 C772.362614,279.692032 772.633829,283.191832 769.650459,281.307968 C766.667088,279.422908 765.851031,278.615538 764.496159,276.999601 C763.136465,275.384861 761.510377,270.80737 759.340653,271.07769 C757.169724,271.348009 755.813647,270 755.813647,270 L755,270.267927 C755,270.267927 756.898509,272.693626 757.712155,273.77012 C758.525802,274.846614 758.255791,276.461354 760.153095,278.346415 C762.052808,280.231475 762.325229,281.845019 763.410091,282.384462 C764.494953,282.923905 766.665883,287.768127 767.479529,289.385259 C768.293176,290.998804 769.921674,292.614741 771.006536,294.231873 C771.312556,294.687362 771.704995,295.292846 772.15336,296 L783.451685,296 L783.451685,296 Z" id="Combined-Shape" fill-rule="nonzero"></path>
                        <path d="M158.773227,296 C157.636314,294.330721 158.027813,291.957328 159.42624,290.793425 C161.044932,289.442603 163.471172,285.126443 163.471172,285.126443 L167.516104,278.383117 C167.516104,278.383117 170.753487,274.873615 170.753487,272.446449 C170.753487,270.019283 175.337584,268.401173 172.640563,266.242493 C169.943542,264.082616 171.292652,262.19482 170.482707,260.575511 C169.672762,258.9574 170.213125,257.87866 172.640563,256.259351 C175.068001,254.640042 179.382516,248.705771 179.382516,248.705771 C179.382516,248.705771 182.618701,247.895517 183.427447,247.895517 C184.236194,247.895517 185.585304,239.2608 188.012742,244.926584 C190.44018,250.592368 191.248927,247.624634 190.44018,251.671109 C189.630235,255.717583 191.518509,254.909727 192.596838,253.830986 C193.675167,252.749849 192.056476,254.640042 194.214332,249.782114 C196.37099,244.926584 195.563441,243.308474 196.911353,244.658098 C198.259264,246.007722 198.798428,246.277407 201.225867,247.086462 C203.652107,247.895517 204.462052,247.624634 205.2696,249.243943 C206.078347,250.863252 205.809963,248.704573 210.394059,249.514826 C214.978156,250.32508 221.450526,247.895517 220.641779,250.592368 C219.833033,253.290418 218.214341,250.322683 221.989691,253.290418 C225.76504,256.259351 226.305403,256.797522 228.462061,257.338091 C230.618719,257.877461 232.506993,257.607776 235.744376,260.845196 C238.980561,264.081417 239.789308,264.352301 240.598055,265.969213 C241.406801,267.58972 242.754713,266.509781 244.103822,268.127892 C245.451733,269.7484 247.340007,269.7484 249.227083,269.7484 C251.114159,269.7484 249.227083,268.127892 252.193686,270.28777 C255.161487,272.445251 257.318145,272.713737 258.666056,277.031096 C260.013967,281.350851 262.710988,281.078769 260.553132,285.396128 C258.396474,289.713486 254.08196,291.601282 255.969035,291.331597 C257.856111,291.060713 261.363077,289.441404 262.441406,289.712288 C263.519735,289.980774 264.058899,288.903233 265.677591,289.712288 C267.296283,290.521343 267.565865,288.633547 267.296283,290.521343 C267.025502,292.410337 267.025502,290.521343 267.025502,292.410337 C267.025502,294.298133 266.486338,290.521343 269.722523,291.331597 C272.958708,292.140652 271.070434,289.711089 274.845784,293.219393 C276.756323,294.994228 277.700329,295.5951 278.341131,296 L158.773227,296 L158.773227,296 Z" id="Combined-Shape" fill-rule="nonzero"></path>
                        <path d="M160.385657,261 L158.497656,258.303181 C158.497656,258.303181 157.688512,256.682692 156.338741,256.414209 C154.98897,256.145725 152.020911,252.637463 152.020911,252.637463 C152.020911,252.637463 150.672339,251.558735 150.672339,249.670962 C150.672339,247.78199 149.592282,244.815488 150.401426,241.578106 C151.211768,238.341923 151.481482,234.294297 151.211768,233.214371 C150.940855,232.135643 152.56034,231.865961 150.672339,230.786035 C148.783138,229.707307 145.005937,229.437625 142.577307,229.437625 C140.149877,229.437625 137.180619,230.24787 136.64119,230.516353 C136.101761,230.786035 139.609249,222.423498 140.148678,221.075088 C140.688107,219.726678 143.116736,213.79008 143.116736,212.982233 C143.116736,212.171989 143.92588,211.902307 142.307593,210.824777 C140.689306,209.744851 137.990962,209.205487 136.371476,210.014533 C134.753189,210.824777 135.022903,208.935805 133.674331,212.171989 C132.325758,215.410569 130.975987,218.917633 129.356501,219.456996 C127.738214,219.997559 124.500441,221.615651 124.500441,221.615651 C124.500441,221.615651 120.453525,221.345969 119.103753,221.076287 C117.755181,220.806605 112.088779,217.838905 111.009921,215.951131 C109.931062,214.062159 109.391633,210.014533 109.391633,208.127958 C109.391633,206.238986 112.358493,200.574467 112.088779,199.224859 C111.819064,197.876449 115.058036,192.480413 114.787122,191.670169 C114.516209,190.861123 115.326551,188.163105 116.135695,187.084377 C116.944839,186.005649 120.992954,184.656041 122.071812,183.577313 C123.15067,182.497387 125.03987,181.150176 126.927872,180.609614 C128.815873,180.069051 130.436558,179.530886 131.78513,179.530886 C133.133703,179.530886 136.64119,176.563186 137.180619,179.530886 C137.721247,182.497387 140.149877,181.418659 141.498449,181.688341 C142.847022,181.959222 143.117935,183.307632 145.275651,179.800568 C147.434566,176.292306 149.592282,175.213578 149.592282,176.022624 C149.592282,176.832868 153.099769,175.75414 153.639198,176.563186 C154.178627,177.372232 155.258684,176.022624 157.146686,177.641914 C159.035886,179.261204 161.733031,179.530886 161.463317,180.338733 C161.193602,181.147779 162.542175,181.147779 162.542175,181.958023 C162.542175,182.767069 163.622232,180.069051 163.622232,184.924525 C163.622232,189.781197 164.970804,192.748896 164.970804,192.748896 C164.970804,192.748896 166.858806,196.796523 167.667949,195.986278 C168.477093,195.177232 170.09538,193.019777 170.09538,193.019777 C170.09538,193.019777 172.793724,191.400487 170.905722,185.734769 C169.016522,180.07025 170.366293,178.45096 169.826864,176.561987 C169.286236,174.673015 169.286236,173.593089 172.524009,171.165952 C175.761782,168.738814 183.585901,163.342778 185.475101,162.264051 C187.363102,161.185323 191.679733,158.217623 191.679733,158.217623 C191.679733,158.217623 193.298021,157.408577 193.568934,155.249923 C193.838648,153.092468 198.964423,149.314524 199.235336,148.235796 C199.506249,147.157068 203.013737,144.460249 203.013737,144.460249 C203.013737,144.460249 206.78974,142.300396 206.520025,140.953185 C206.250311,139.604775 211.377284,137.177638 212.186428,137.177638 C212.995571,137.177638 217.313401,138.524849 217.313401,136.096513 C217.313401,133.669376 217.313401,133.128813 220.011745,130.971358 C222.70889,128.813902 226.216377,125.575322 227.566149,125.575322 C228.914721,125.575322 233.502265,123.149383 235.390267,122.608821 C237.279467,122.068258 243.215584,119.37024 237.818896,122.608821 C232.422208,125.845004 235.929696,123.95723 234.850838,126.655248 C233.773179,129.352068 232.961638,132.86033 238.088611,128.812704 C243.215584,124.766276 242.944671,123.956032 244.833871,123.687548 C246.723071,123.417866 245.3733,124.496594 249.420216,123.146986 C253.468332,121.798576 253.738046,121.259212 253.738046,121.259212 C253.738046,121.259212 255.627246,119.639922 254.54719,118.832075 C253.468332,118.021831 255.627246,116.943103 251.579131,118.561195 C247.532215,120.180485 247.801929,120.450167 245.103586,119.639922 C242.40644,118.830876 238.358325,119.09936 241.326384,116.401342 C244.294442,113.704523 248.071644,112.894278 245.643015,111.81555 C243.215584,110.736823 237.009753,112.086431 236.200609,112.354914 C235.390267,112.624596 233.502265,112.085232 231.882779,112.354914 C230.264492,112.624596 230.803921,110.198657 231.882779,109.658095 C232.962836,109.117533 236.470324,107.498242 240.786955,106.419515 C245.103586,105.340787 255.627246,105.071105 258.054677,105.071105 C260.482108,105.071105 263.719881,105.611667 265.609081,104.262059 C267.497083,102.913649 271.275483,100.756194 271.814912,99.6750691 C272.35554,98.5963414 274.513256,96.9782498 274.513256,96.9782498 C274.513256,96.9782498 276.940687,94.5499138 275.592114,93.471186 C274.243542,92.3924583 272.89377,89.9641223 271.814912,90.5034862 C270.736054,91.0428501 271.546396,94.2814304 269.387482,90.7731681 C267.228567,87.267303 267.498281,86.7267405 266.419423,85.9176947 C265.340565,85.1086489 264.260508,85.6468142 265.070851,81.8712672 C265.879994,78.0945215 265.61028,76.4752313 265.61028,76.4752313 C265.61028,76.4752313 266.419423,73.2390481 265.61028,72.9693662 C264.799937,72.6984857 264.261707,71.8906385 262.913135,72.6984857 C261.563363,73.5075315 254.008959,77.2854757 252.390672,78.0945215 C250.771187,78.9035673 248.612272,74.8571397 249.421415,72.9693662 C250.231757,71.0791955 249.69113,72.1591218 248.612272,69.4623025 C247.533414,66.7642846 243.216783,66.2237221 241.597297,66.2237221 C239.977811,66.2237221 236.201808,63.7953861 235.121751,65.4146763 C234.042893,67.0327679 228.37769,72.1579232 227.296434,72.6984857 C226.217576,73.2390481 224.599289,68.1126942 223.790145,76.4752313 C222.979803,84.8401656 226.758204,87.267303 222.441573,87.8066669 C218.124942,88.3460307 214.346541,90.7731681 214.346541,90.7731681 C214.346541,90.7731681 210.840252,91.0440486 210.840252,93.2015041 C210.840252,95.3613567 209.49168,100.485313 207.870995,101.024677 C206.252708,101.56524 202.204593,100.756194 200.856021,99.1369038 C199.507448,97.5176136 201.125735,91.5834125 201.125735,91.5834125 L203.554364,89.1550765 C203.554364,89.1550765 186.286642,86.4582572 186.555158,85.3783309 C186.826071,84.2996031 181.429383,82.4118296 180.889954,80.7925394 C180.350525,79.1732492 180.079612,75.6661855 180.62024,74.3177759 C181.159669,72.9693662 188.444358,66.4946026 192.22156,65.146193 C195.998762,63.7965847 202.474308,60.8300835 204.363508,60.289521 C206.252708,59.7501571 209.489282,60.0198391 210.569339,58.6714294 C211.648197,57.3218212 211.917912,54.8946838 211.917912,54.8946838 C211.917912,54.8946838 211.378483,51.1167395 212.457341,51.6561034 C213.536199,52.1966658 215.425399,53.0057116 215.695114,53.8147574 C215.966027,54.6238032 215.966027,56.5127754 217.854029,54.3529227 C219.743229,52.1954673 222.171858,51.3852229 224.329574,50.3076937 C226.488489,49.2277674 229.725063,49.4986479 231.615462,48.4199202 C233.503464,47.3411925 236.741237,46.2612661 237.010951,43.5632482 C237.280666,40.8664289 236.201808,41.6754747 234.852037,41.4045942 C233.503464,41.1361108 235.391466,41.6754747 230.80512,43.8329302 C226.217576,45.9903856 227.567347,44.372294 224.329574,45.9903856 C221.091801,47.6096758 220.820888,47.8793577 220.552372,46.5309481 C220.281459,45.1813398 221.091801,43.0238844 221.091801,43.0238844 C221.091801,43.0238844 221.362715,42.7530038 219.473514,42.2148386 C217.584314,41.6754747 217.584314,42.4845205 217.3146,40.0573831 C217.044885,37.6290471 218.663172,34.1219834 215.966027,35.2007111 C213.267683,36.2794389 210.840252,34.3916653 208.951052,39.7865026 C207.061852,45.1813398 200.586306,50.8482562 198.96682,49.4986479 C197.348533,48.1502383 197.078819,47.8793577 195.729047,47.8793577 C194.379276,47.8793577 192.491274,46.2612661 190.062645,45.9915842 C187.634016,45.7219023 180.348128,45.7219023 178.461325,45.9915842 C176.572124,46.2624647 174.414408,44.9128565 172.793724,46.5321467 C171.175437,48.1502383 168.748006,50.3088923 168.748006,51.1191367 C168.748006,51.9281825 166.319377,48.1502383 165.510233,48.4211188 C164.70109,48.6908007 162.540976,47.342391 160.114744,47.342391 C157.686115,47.342391 156.066629,45.9927828 155.258684,45.9927828 C154.449541,45.9927828 156.066629,43.8341287 155.258684,43.5644468 C154.449541,43.2959635 136.909706,42.755401 136.909706,42.755401 C136.909706,42.755401 131.244503,40.5979455 129.086787,40.8676275 C126.927872,41.1373094 120.992954,41.4057928 116.404211,42.2160371 C111.816667,43.0250829 105.071406,45.7231009 102.91369,45.9927828 C100.754775,46.2636633 95.8987154,46.2636633 95.0895718,44.9140551 C94.2792295,43.5656454 95.3592863,43.8353273 94.2792295,43.5656454 C93.2003715,43.2971621 94.0107138,42.7565996 91.5820844,40.8688261 C89.1534551,38.979854 92.6621412,37.3617624 87.8048825,37.3617624 C82.9488225,37.3617624 79.9807641,37.0908818 75.6641332,37.3617624 C71.3463035,37.6314443 62.4433271,39.7888998 61.364469,39.5192178 C60.285611,39.2495359 51.6511504,40.8688261 50.3013791,40.0597803 C48.9528065,39.2495359 42.2063475,43.0262815 40.8589736,42.7565996 C39.510401,42.4869177 34.3834278,43.0274801 33.0348553,43.8365259 C31.685084,44.6467703 25.2095382,46.2636633 27.368453,47.6132716 C29.5261691,48.9616812 29.2564546,50.3100909 29.5261691,51.1203353 C29.7970824,51.9293811 27.368453,53.8171546 27.368453,53.8171546 C27.368453,53.8171546 26.8278253,53.8171546 23.8609656,52.7384269 C20.8929072,51.6585006 17.6551343,51.1203353 16.305363,51.9293811 C14.9567905,52.7384269 12.5281611,54.3589157 13.0675901,55.4376434 C13.6082179,56.5163711 17.3842211,58.9447071 17.9248488,58.1344627 C18.4642779,57.3254169 19.8140492,55.7073253 21.4323362,55.9770072 C23.0518221,56.2478878 25.4804514,54.8982795 23.3215366,57.5962974 C21.1626217,60.2931168 19.2734214,61.642725 17.9248488,61.9136055 C16.5762763,62.1820889 13.3385034,62.4517708 10.370445,62.7226513 C7.40118789,62.9935319 7.6709024,61.6439236 4.97375726,64.3419415 C2.27661213,67.0387608 1.19655534,65.4206692 0.657126315,68.3883691 C0.117697288,71.3548704 -0.421731739,71.3548704 0.657126315,72.1651147 C1.73598437,72.9741605 -1.50178852,73.2438425 0.926840829,74.0528883 C3.35427145,74.8631327 6.32232983,75.6721785 6.05261532,76.4800257 C5.78170207,77.2902701 8.75095919,75.4024965 7.13147337,77.5587534 C5.51198756,79.718606 4.43432824,81.605181 7.6709024,79.4477255 C10.9086753,77.2902701 12.7966769,78.9071631 15.4950208,77.5587534 C18.1933646,76.2103437 20.8917085,75.9406618 22.5099956,74.8619341 C24.1294814,73.7820078 24.9386249,72.1651147 27.3672543,71.3536718 C29.7958836,70.544626 28.1763978,71.6245523 28.4461123,72.972962 C28.7158268,74.3213716 28.4461123,74.5910536 30.0655981,73.5111272 C31.6838852,72.4323995 31.6838852,73.2426439 33.8428001,71.8930356 C36.0005162,70.544626 38.4291455,69.1950177 40.0486313,70.0040635 C41.6669184,70.8143079 42.2063475,70.8143079 43.2864042,70.8143079 C44.3652623,70.8143079 41.9378317,70.5434274 44.3652623,70.8143079 C46.7938916,71.0827913 43.2864042,70.0040635 51.3802371,71.8930356 C59.4752687,73.7808092 61.6341835,72.4323995 62.1724138,75.4000994 C62.7130416,78.3677992 63.7918997,75.1292188 65.1404722,77.018191 C66.4890448,78.9059645 67.2993871,77.2890715 68.1085306,80.5252547 C68.9176741,83.763835 68.1085306,92.665736 67.5691016,93.7444637 C67.0296726,94.8231915 66.759958,94.8231915 67.0296726,97.2515274 C67.2993871,99.6786648 70.53716,111.280981 69.4583019,112.088828 C68.3794438,112.896675 65.9508145,113.167556 65.9508145,113.167556 L64.6022419,118.023029 C64.6022419,118.023029 62.4445258,122.069457 60.5553255,124.228111 C58.6661252,126.385566 56.2386945,129.084783 54.8889232,130.971358 C53.5403507,132.86033 52.4602939,136.09891 50.5722923,137.986684 C48.6842907,139.874457 47.0648049,139.065412 47.6042339,143.111839 C48.1436629,147.158267 47.6042339,151.474376 48.1436629,154.443275 C48.6842907,157.410974 50.0328633,161.457402 51.1117213,163.076692 C52.1905794,164.694784 53.0009217,164.694784 54.8889232,166.043194 C56.7781236,167.391603 59.2067529,169.012092 58.9358397,170.360502 C58.6661252,171.708911 59.2055542,180.073846 59.2055542,180.073846 C59.2055542,180.073846 60.82504,182.770665 61.0935558,185.738365 C61.364469,188.707263 63.2524706,191.673764 63.2524706,191.673764 L64.8719564,195.182027 C64.8719564,195.182027 65.6811,195.452907 66.7611568,197.609164 C67.8400148,199.767818 67.8400148,199.767818 68.1097293,200.845347 C68.3806426,201.926472 68.3806426,201.655592 68.3806426,201.926472 C68.3806426,202.194956 68.1097293,197.339482 67.5703003,195.989874 C67.0308713,194.641464 67.0308713,193.023373 66.4914423,191.404082 C65.9520132,189.784792 66.7611568,187.89582 65.1428697,185.468683 C63.5245826,183.041545 63.5245826,182.770665 62.7154391,180.342329 C61.9062955,177.915191 60.8262387,175.217174 61.9062955,174.676611 C62.9851536,174.138446 63.7942971,170.631382 65.953212,174.676611 C68.1109281,178.723039 68.3818413,177.64551 68.6515558,180.882891 C68.9200716,184.120273 69.7304139,185.200199 70.5395574,186.547411 C71.348701,187.89582 73.2367026,192.484009 74.3167593,194.370584 C75.3956174,196.259556 74.3167593,193.291856 76.74419,197.068602 C79.1728193,200.845347 79.4437326,201.654393 80.7923051,204.622093 C82.1408777,207.589793 82.95122,207.589793 83.7603635,209.747248 C84.5695071,211.907101 84.030078,211.366538 83.4894503,213.793676 C82.9500212,216.220813 84.0288793,218.92003 84.0288793,218.92003 C84.0288793,218.92003 87.8060812,220.268439 88.0757957,221.077485 C88.3455102,221.886531 92.1227122,223.234941 92.6633399,224.314867 C93.2027689,225.394793 96.7102564,226.742004 96.7102564,226.742004 C96.7102564,226.742004 99.6783147,228.630977 100.755974,229.17034 C101.836031,229.709704 105.075002,230.250267 105.075002,230.250267 C105.075002,230.250267 107.232719,230.790829 108.041862,231.059313 C108.851006,231.328994 111.279635,231.328994 111.279635,231.328994 C111.279635,231.328994 113.43855,229.710903 114.247693,230.250267 C115.056837,230.788432 116.946037,229.17034 117.755181,230.51875 C118.564324,231.868358 120.18381,231.868358 120.992954,232.948285 C121.802097,234.027012 122.611241,234.027012 123.961012,235.375422 C125.310783,236.723832 126.659356,236.45415 128.007929,237.532877 C129.356501,238.611605 130.435359,238.611605 132.054845,238.611605 C133.673132,238.611605 133.673132,238.611605 134.753189,238.882486 C135.830848,239.152168 136.371476,238.072241 137.450334,239.423048 C138.529192,240.771458 139.338336,241.580504 140.147479,242.928913 C140.956623,244.277323 142.845823,244.277323 143.115537,246.435977 C143.385252,248.593432 143.924681,248.326148 143.924681,250.212723 C143.924681,252.101695 145.003539,252.910741 145.813881,253.451303 C146.621826,253.989468 149.589885,256.686288 149.589885,256.686288 L153.636801,257.496532 L156.874574,259.924868 L160.385657,261 Z" id="Shape" fill-rule="nonzero"></path>
                        <path d="M246.517261,9.59084803 L262.735706,7.5746859 C262.735706,7.5746859 268.411261,7.5746859 271.250239,5.55852378 C274.088017,3.54236166 271.250239,3.54236166 279.764773,1.92990972 C288.279307,0.31626338 285.847441,-0.489962588 290.307663,0.31626338 C294.766685,1.12368376 295.983218,1.12368376 300.849352,1.92990972 C305.714285,2.73613569 306.930819,1.52739394 311.38984,2.73613569 C315.850063,3.94607185 317.877218,3.54236166 321.526819,3.54236166 L332.87913,3.54236166 C338.555886,3.54236166 343.826731,0.31626338 345.853886,2.3324255 C347.881042,4.34858763 349.097575,3.54236166 355.990865,4.34858763 C362.882954,5.15481359 365.721932,3.54116725 368.55971,4.34858763 C371.398688,5.15481359 376.264822,3.94607185 381.940377,4.34858763 C387.615932,4.7511034 390.454911,3.94607185 392.482066,3.94607185 C394.509222,3.94607185 396.535176,1.12248935 399.374155,3.54236166 C402.213133,5.96223397 405.861533,2.73613569 406.266244,5.96223397 C406.672155,9.18833225 411.943,6.76845994 406.672155,9.18833225 C401.401311,11.6082046 402.211933,11.2044944 398.562332,14.4305926 C394.913932,17.6566909 400.995399,20.479079 393.291487,23.3026615 C385.587576,26.1250496 384.371042,21.6890152 382.343887,26.5287598 C380.316731,31.36731 382.343887,32.5772462 381.939176,34.9971185 C381.533265,37.4157964 380.722643,37.8195066 378.289576,39.8356687 C375.85771,41.8518308 375.85771,39.8356687 370.180954,41.0456048 C364.504198,42.255541 360.449887,43.4654772 358.01802,43.4654772 C355.584953,43.4654772 350.314109,45.4816393 348.691664,46.2878652 C347.069219,47.0952856 351.530642,48.3040274 343.014908,50.7238997 C334.500374,53.143772 332.472018,52.7412562 330.040152,55.9661601 C327.607085,59.1934528 328.417707,59.597163 326.796463,61.6133251 C325.174018,63.6294872 320.309085,71.6953301 317.876018,69.679168 C315.444151,67.6630059 314.226417,68.0655216 312.199262,66.0493595 C310.172106,64.0331974 308.955572,61.2108093 307.739039,59.597163 C306.522505,57.9835166 306.116594,53.9511924 305.711883,51.5313201 C305.307173,49.1114477 301.656371,43.4666716 305.711883,44.2728975 C309.766195,45.0791235 312.199262,44.6766077 313.415795,43.8703817 C314.632329,43.0629614 315.848862,40.2405733 315.848862,40.2405733 C315.848862,40.2405733 315.444151,35.8045388 314.226417,33.3846665 C313.009884,30.9647942 313.821706,28.9486321 311.794551,26.5299542 C309.767395,24.1100819 309.767395,24.5137921 306.928417,22.0939198 C304.090639,19.6740475 304.901261,18.4641113 300.441039,18.0615955 C295.980816,17.6590797 294.764283,16.4479492 293.141838,16.8516594 C291.520594,17.2541751 286.249749,14.0280769 291.925304,13.6255611 C297.60206,13.2218509 302.872905,14.0280769 302.872905,14.0280769 C302.872905,14.0280769 310.170905,10.8019786 307.739039,10.3994628 C305.307173,9.99575262 311.387439,6.36594416 305.711883,7.57588031 C300.035127,8.78581647 293.54895,10.3994628 291.926505,10.8019786 C290.305261,11.2044944 286.249749,11.6082046 282.195438,12.8181407 C278.142328,14.0280769 273.274993,13.6255611 270.843127,16.4479492 C268.41006,19.2703373 270.843127,19.6740475 268.41006,19.2703373 C265.978194,18.8678215 270.437216,16.4479492 264.76166,19.2703373 C259.084904,22.0939198 260.707349,21.6902096 257.869572,20.8839836 C255.030593,20.0777576 253.003438,18.8678215 253.003438,18.8678215 C253.003438,18.8678215 256.654239,18.4641113 251.382194,18.0615955 C246.111349,17.6590797 246.111349,17.6590797 244.084194,15.238013 C242.057038,12.8181407 243.273572,12.8181407 244.488904,12.0119147 C245.706639,11.2044944 246.517261,9.59084803 246.517261,9.59084803 Z" id="Shape" fill-rule="nonzero"></path>
                        <path d="M237.871011,28 C235.842975,30.0635205 230.974729,32.9534272 232.192992,34.191784 C233.410053,35.4301409 234.221027,39.970375 236.65515,38.7320182 C239.088072,37.4936614 236.249063,33.3666203 245.578266,36.6684977 C254.908671,39.970375 254.096496,36.256527 256.124531,41.2087318 C258.152567,46.1609366 259.774515,49.8747846 258.557453,51.1143638 C257.341593,52.3527206 256.935505,53.5910774 252.878233,54.8294343 C248.822162,56.0677911 247.199013,57.719341 250.039224,59.781639 C252.878233,61.8451596 258.152567,63.9086801 260.585489,65.1482594 C263.019612,66.3853937 270.32078,66.7998093 266.669595,62.6727682 C263.01841,58.5457271 267.480569,57.3061479 267.480569,57.3061479 C267.480569,57.3061479 274.376851,62.6727682 271.943929,56.4809842 C269.509806,50.2904226 267.886657,50.2904226 269.509806,50.2904226 C271.132955,50.2904226 274.376851,52.3539431 274.376851,52.3539431 L276,49.0520658 L274.376851,43.6866679 L269.103718,38.32127 C269.103718,38.32127 273.564675,34.194229 267.480569,33.3690653 C261.396463,32.5439015 261.801349,32.5439015 258.556252,30.4791585 C255.311155,28.415638 254.906268,27.5904743 248.820961,28.8288311 C242.736854,30.0671879 240.708819,30.8923516 240.708819,30.8923516 L237.871011,28 Z" id="Shape" fill-rule="nonzero"></path>
                        <path d="M148,32.758648 C150.432006,30.331122 156.916556,24.6684923 159.348563,26.2860441 C161.779369,27.903596 165.426178,25.0722811 168.263919,27.4998071 C171.100459,29.9273332 174.342734,32.758648 176.774741,33.567424 C179.206747,34.3761999 182.043287,31.544885 184.475294,32.758648 C186.9061,33.972411 195.416922,26.6910312 193.796384,32.3548592 C192.174647,38.0186871 195.822656,39.636239 191.364378,40.0412261 C186.9061,40.4462131 182.043287,43.6825151 180.015815,42.4687521 C177.989543,41.2549891 176.367806,40.0412261 173.125531,41.6599761 C169.883256,43.277528 171.504993,43.277528 167.856984,42.4687521 C164.210175,41.6599761 163.399906,43.277528 162.589637,42.063765 C161.778168,40.8512002 159.347362,41.2549891 159.751896,37.6137001 C160.156431,33.9736092 161.372434,34.3773981 158.940427,34.3773981 C156.509621,34.3773981 154.48335,34.7823852 152.861612,33.5686222 C151.241075,32.3548592 148,32.758648 148,32.758648 Z" id="Shape" fill-rule="nonzero"></path>
                        <path d="M429.375934,105.570532 C429.767735,103.838326 436.177522,104.402422 438.31135,101.136576 C442.326628,94.991152 436.255203,98.3308451 434.916466,97.1537812 C433.710051,96.0930593 434.005917,94.0847151 433.128861,92.7569241 C432.378611,91.6211079 430.037305,91.2673743 430.141258,89.9245118 C430.532485,84.8706648 435.348558,88.20496 434.095381,83.543174 C433.981576,83.1198233 433.257234,83.054488 432.808318,83.1171646 C431.566992,83.2904757 430.450457,84.4793107 429.22463,84.223217 C427.55388,83.8741723 429.055976,80.5142166 428.924304,80.0781927 C428.820672,79.7350164 428.161332,79.8469364 427.816915,79.9791573 C426.415663,80.5170965 424.529032,80.7486392 423.826272,82.0353208 C423.231471,83.1243388 424.819914,84.3942423 424.734748,85.6222885 C424.622539,87.2402786 423.148825,88.6548087 423.254968,90.2731793 C423.498723,93.9897264 429.683299,92.6457897 430.008541,95.9565533 C430.325387,99.18184 428.579995,96.3093549 427.143873,97.6587045 C426.417711,98.340991 426.893701,99.6668329 426.343984,100.488287 C425.846744,101.231323 423.925922,101.255496 424.165727,102.109009 C424.644496,103.813042 426.650287,104.703003 427.892567,106 L429.375934,105.570532 Z" id="Path-2"></path>
                        <path d="M418.464226,102.36911 C422.724775,98.1627741 424.963421,85.4917352 417.406728,90.4100362 C409.306715,95.681959 413.856385,94.1102748 415.029559,99.2172696 C415.870065,102.87611 411.716564,101.26344 417.586076,102.108789 L418.464226,102.36911 Z" id="Path-3"></path>
                    </g>
                    <circle id="Oval" fill="#DB3127" cx="490" cy="112" r="6"></circle>
                    <path d="M126,152 C126,152 169,78 298,58 C427,38 490.5,112.5 490.5,112.5" id="Line" stroke="#DB3127" stroke-width="2" stroke-linecap="square" stroke-dasharray="2,4"></path>
                    <path d="M105,101 C105,101 186,20 322,25 C458,30 490.5,112.5 490.5,112.5" id="Line" stroke="#DB3127" stroke-width="2" stroke-linecap="square" stroke-dasharray="2,4"></path>
                    <path d="M605,88 C605,88 591.5,74 547.75,76 C504,78 490.5,112.5 490.5,112.5" id="Line" stroke="#DB3127" stroke-width="2" stroke-linecap="square" stroke-dasharray="2,4"></path>
                    <path d="M437,99 C437,99 445,95 461,98 C477,101 490.5,112.5 490.5,112.5" id="Line" stroke="#DB3127" stroke-width="2" stroke-linecap="square" stroke-dasharray="2,4"></path>
                    <path d="M415,140 C415,140 422,115 448,108 C474,101 490.5,112.5 490.5,112.5" id="Line" stroke="#DB3127" stroke-width="2" stroke-linecap="square" stroke-dasharray="2,4"></path>
                    <path d="M531,136 C531,136 530,119 512,114 C494,109 490.5,112.5 490.5,112.5" id="Line" stroke="#DB3127" stroke-width="2" stroke-linecap="square" stroke-dasharray="2,4"></path>
                    <path d="M522,184 C522,184 524,155 515,139 C506,123 490.5,112.5 490.5,112.5" id="Line" stroke="#DB3127" stroke-width="2" stroke-linecap="square" stroke-dasharray="2,4"></path>
                    <path d="M535,105 C535,105 530.5,96 512.75,98 C495,100 490.5,112.5 490.5,112.5" id="Line" stroke="#DB3127" stroke-width="2" stroke-linecap="square" stroke-dasharray="2,4"></path>
                    <path d="M471,66 C471,66 482,71 487,85 C492,99 490.5,112.5 490.5,112.5" id="Line" stroke="#DB3127" stroke-width="2" stroke-linecap="square" stroke-dasharray="2,4"></path>
                    <use id="Rectangle-20" stroke="#DB3127" mask="url(#mask-2)" stroke-width="4" xlink:href="#path-1"></use>
                    <use id="Rectangle-20" stroke="#DB3127" mask="url(#mask-4)" stroke-width="4" xlink:href="#path-3"></use>
                    <use id="Rectangle-20" stroke="#DB3127" mask="url(#mask-6)" stroke-width="4" xlink:href="#path-5"></use>
                    <use id="Rectangle-20" stroke="#DB3127" mask="url(#mask-8)" stroke-width="4" xlink:href="#path-7"></use>
                    <use id="Rectangle-20" stroke="#DB3127" mask="url(#mask-10)" stroke-width="4" xlink:href="#path-9"></use>
                    <use id="Rectangle-20" stroke="#DB3127" mask="url(#mask-12)" stroke-width="4" xlink:href="#path-11"></use>
                    <use id="Rectangle-20" stroke="#DB3127" mask="url(#mask-14)" stroke-width="4" xlink:href="#path-13"></use>
                    <use id="Rectangle-20" stroke="#DB3127" mask="url(#mask-16)" stroke-width="4" xlink:href="#path-15"></use>
                    <use id="Rectangle-20" stroke="#DB3127" mask="url(#mask-18)" stroke-width="4" xlink:href="#path-17"></use>
                </g>
            </g>
        </g>
    </g>
</svg>