<?xml version="1.0" encoding="UTF-8"?>
<svg width="18px" height="18px" viewBox="0 0 18 18" version="1.1" xmlns="http://www.w3.org/2000/svg" xmlns:xlink="http://www.w3.org/1999/xlink">
    <!-- Generator: Sketch 42 (36781) - http://www.bohemiancoding.com/sketch -->
    <title>Mask</title>
    <desc>Created with Sketch.</desc>
    <defs></defs>
    <g id="Pages" stroke="none" stroke-width="1" fill="none" fill-rule="evenodd">
        <g id="Sponsorship" transform="translate(-692.000000, -2219.000000)" fill="#E42526">
            <g id="Reach" transform="translate(306.000000, 1874.000000)">
                <path d="M395,345 C399.970563,345 404,349.029437 404,354 C404,358.970563 399.970563,363 395,363 C390.029437,363 386,358.970563 386,354 C386,349.029437 390.029437,345 395,345 Z M395,347 C398.865993,347 402,350.134007 402,354 C402,357.865993 398.865993,361 395,361 C391.134007,361 388,357.865993 388,354 C388,352.143485 388.737498,350.363007 390.050253,349.050253 C391.363007,347.737498 393.143485,347 395,347 L395,347 Z M397.62,353.44 L393.795,350.99 C393.347,350.703 392.979,350.919 392.979,351.471 L392.979,356.518 C392.979,357.07 393.344,357.284 393.79,356.993 L397.628,354.493 C397.832689,354.39695 397.962741,354.190535 397.961021,353.964437 C397.959302,353.738339 397.826126,353.533926 397.62,353.441 L397.62,353.44 Z" id="Mask" transform="translate(395.000000, 354.000000) rotate(-270.000000) translate(-395.000000, -354.000000) "></path>
            </g>
        </g>
    </g>
</svg>