<?xml version="1.0" encoding="UTF-8" standalone="no"?>
<svg
   xmlns:dc="http://purl.org/dc/elements/1.1/"
   xmlns:cc="http://creativecommons.org/ns#"
   xmlns:rdf="http://www.w3.org/1999/02/22-rdf-syntax-ns#"
   xmlns:svg="http://www.w3.org/2000/svg"
   xmlns="http://www.w3.org/2000/svg"
   viewBox="0 0 1075.2 1075.2"
   height="1075.2"
   width="1075.2"
   xml:space="preserve"
   id="svg2"
   version="1.1"><metadata
     id="metadata8"><rdf:RDF><cc:Work
         rdf:about=""><dc:format>image/svg+xml</dc:format><dc:type
           rdf:resource="http://purl.org/dc/dcmitype/StillImage" /></cc:Work></rdf:RDF></metadata><defs
     id="defs6" /><g
     transform="matrix(1.3333333,0,0,-1.3333333,0,1075.2)"
     id="g10"><path
       id="path12"
       style="fill:#ffffff;fill-opacity:0;fill-rule:nonzero;stroke:none"
       d="M 0,0.001 H 806.4 V 806.4 H 0 Z" /><g
       transform="translate(391.9098,468.0893)"
       id="g14"><path
         id="path16"
         style="fill:none;stroke:#c1343e;stroke-width:1;stroke-linecap:butt;stroke-linejoin:bevel;stroke-miterlimit:10;stroke-dasharray:none;stroke-opacity:1"
         d="M 0,0 H -43.265 L -0.001,43.263 43.265,0 Z" /></g><g
       transform="translate(348.6452,338.3784)"
       id="g18"><path
         id="path20"
         style="fill:none;stroke:#c1343e;stroke-width:1;stroke-linecap:butt;stroke-linejoin:bevel;stroke-miterlimit:10;stroke-dasharray:none;stroke-opacity:1"
         d="M 0,0 H -43.265 L -0.002,43.263 43.265,0 Z" /></g><g
       transform="translate(305.38,295.1147)"
       id="g22"><path
         id="path24"
         style="fill:none;stroke:#c1343e;stroke-width:1;stroke-linecap:butt;stroke-linejoin:bevel;stroke-miterlimit:10;stroke-dasharray:none;stroke-opacity:1"
         d="M 0,0 V 43.265 L 43.263,0.002 0,-43.265 Z" /></g><g
       transform="translate(391.9084,381.644)"
       id="g26"><path
         id="path28"
         style="fill:none;stroke:#c1343e;stroke-width:1;stroke-linecap:butt;stroke-linejoin:bevel;stroke-miterlimit:10;stroke-dasharray:none;stroke-opacity:1"
         d="M 0,0 V 43.265 L 43.264,0.002 0,-43.265 Z" /></g><g
       transform="translate(521.5724,511.3525)"
       id="g30"><path
         id="path32"
         style="fill:none;stroke:#c1343e;stroke-width:1;stroke-linecap:butt;stroke-linejoin:bevel;stroke-miterlimit:10;stroke-dasharray:none;stroke-opacity:1"
         d="M 0,0 H 43.265 L 0.001,-43.263 -43.265,0 Z" /></g><g
       transform="translate(348.6745,424.8667)"
       id="g34"><path
         id="path36"
         style="fill:none;stroke:#c1343e;stroke-width:1;stroke-linecap:butt;stroke-linejoin:miter;stroke-miterlimit:10;stroke-dasharray:none;stroke-opacity:1"
         d="M 0,0 V -43.265 L -43.264,-0.001 0,43.265 Z" /></g><g
       transform="translate(478.3429,468.0874)"
       id="g38"><path
         id="path40"
         style="fill:none;stroke:#c1343e;stroke-width:1;stroke-linecap:butt;stroke-linejoin:bevel;stroke-miterlimit:10;stroke-dasharray:none;stroke-opacity:1"
         d="M 0,0 V -43.265 L -43.264,-0.001 0,43.265 Z" /></g><g
       transform="translate(478.3595,381.5688)"
       id="g42"><path
         id="path44"
         style="fill:none;stroke:#c1343e;stroke-width:1;stroke-linecap:butt;stroke-linejoin:bevel;stroke-miterlimit:10;stroke-dasharray:none;stroke-opacity:1"
         d="M 0,0 H -43.266 L -0.002,43.263 43.265,0 Z" /></g><g
       transform="translate(348.5465,251.811)"
       id="g46"><path
         id="path48"
         style="fill:none;stroke:#c1343e;stroke-width:1;stroke-linecap:butt;stroke-linejoin:bevel;stroke-miterlimit:10;stroke-dasharray:none;stroke-opacity:1"
         d="M 0,0 H 43.265 L 0.002,-43.264 -43.265,0 Z" /></g><g
       transform="translate(564.7404,468.0874)"
       id="g50"><path
         id="path52"
         style="fill:none;stroke:#c1343e;stroke-width:1;stroke-linecap:butt;stroke-linejoin:bevel;stroke-miterlimit:10;stroke-dasharray:none;stroke-opacity:1"
         d="M 0,0 V -43.265 L -43.264,-0.001 0,43.265 Z" /></g><g
       transform="translate(391.8117,554.5527)"
       id="g54"><path
         id="path56"
         style="fill:none;stroke:#c1343e;stroke-width:1;stroke-linecap:butt;stroke-linejoin:miter;stroke-miterlimit:10;stroke-dasharray:none;stroke-opacity:1"
         d="M 0,0 H 43.265 L 0.001,-43.263 -43.265,0 Z" /></g><g
       transform="translate(262.0158,511.2881)"
       id="g58"><path
         id="path60"
         style="fill:none;stroke:#c1343e;stroke-width:1;stroke-linecap:butt;stroke-linejoin:miter;stroke-miterlimit:10;stroke-dasharray:none;stroke-opacity:1"
         d="M 0,0 V -43.265 L -43.263,-0.001 0,43.265 Z" /></g><g
       transform="translate(305.2834,468.0464)"
       id="g62"><path
         id="path64"
         style="fill:none;stroke:#c1343e;stroke-width:1;stroke-linecap:butt;stroke-linejoin:miter;stroke-miterlimit:10;stroke-dasharray:none;stroke-opacity:1"
         d="M 0,0 V 43.265 L 43.263,0.001 0,-43.265 Z" /></g><g
       transform="translate(435.0939,424.8667)"
       id="g66"><path
         id="path68"
         style="fill:none;stroke:#c1343e;stroke-width:1;stroke-linecap:butt;stroke-linejoin:bevel;stroke-miterlimit:10;stroke-dasharray:none;stroke-opacity:1"
         d="M 0,0 H -43.265 L -0.001,43.263 43.266,0 Z" /></g><g
       transform="translate(391.8117,381.602)"
       id="g70"><path
         id="path72"
         style="fill:none;stroke:#c1343e;stroke-width:1;stroke-linecap:butt;stroke-linejoin:miter;stroke-miterlimit:10;stroke-dasharray:none;stroke-opacity:1"
         d="M 0,0 V -43.265 L -43.263,-0.002 0,43.265 Z" /></g><g
       transform="translate(348.5485,338.3354)"
       id="g74"><path
         id="path76"
         style="fill:none;stroke:#c1343e;stroke-width:1;stroke-linecap:butt;stroke-linejoin:miter;stroke-miterlimit:10;stroke-dasharray:none;stroke-opacity:1"
         d="M 0,0 H 43.265 L 0.001,-43.263 -43.265,0 Z" /></g><g
       transform="translate(478.3429,554.5527)"
       id="g78"><path
         id="path80"
         style="fill:none;stroke:#c1343e;stroke-width:1;stroke-linecap:butt;stroke-linejoin:miter;stroke-miterlimit:10;stroke-dasharray:none;stroke-opacity:1"
         d="M 0,0 V -43.265 L -43.264,-0.001 0,43.265 Z" /></g><g
       transform="translate(262.0172,424.8667)"
       id="g82"><path
         id="path84"
         style="fill:none;stroke:#c1343e;stroke-width:1;stroke-linecap:butt;stroke-linejoin:miter;stroke-miterlimit:10;stroke-dasharray:none;stroke-opacity:1"
         d="M 0,0 H -43.265 L -0.001,43.263 43.265,0 Z" /></g><g
       transform="translate(262.0158,597.8179)"
       id="g86"><path
         id="path88"
         style="fill:none;stroke:#c1343e;stroke-width:1;stroke-linecap:butt;stroke-linejoin:miter;stroke-miterlimit:10;stroke-dasharray:none;stroke-opacity:1"
         d="M 0,0 H 43.265 L 0.001,-43.263 -43.265,0 Z" /></g><g
       transform="translate(521.6662,511.3535)"
       id="g90"><path
         id="path92"
         style="fill:none;stroke:#c1343e;stroke-width:1;stroke-linecap:butt;stroke-linejoin:miter;stroke-miterlimit:10;stroke-dasharray:none;stroke-opacity:1"
         d="M 0,0 H -43.265 L -0.002,43.263 43.265,0 Z" /></g><g
       transform="translate(392.0021,554.6182)"
       id="g94"><path
         id="path96"
         style="fill:none;stroke:#c1343e;stroke-width:1;stroke-linecap:butt;stroke-linejoin:miter;stroke-miterlimit:10;stroke-dasharray:none;stroke-opacity:1"
         d="M 0,0 H -43.265 L -0.001,43.263 43.265,0 Z" /></g><g
       transform="translate(348.7375,511.3535)"
       id="g98"><path
         id="path100"
         style="fill:none;stroke:#c1343e;stroke-width:1;stroke-linecap:butt;stroke-linejoin:miter;stroke-miterlimit:10;stroke-dasharray:none;stroke-opacity:1"
         d="M 0,0 H -43.265 L -0.001,43.263 43.265,0 Z" /></g><g
       transform="translate(305.4709,381.6674)"
       id="g102"><path
         id="path104"
         style="fill:none;stroke:#c1343e;stroke-width:1;stroke-linecap:butt;stroke-linejoin:miter;stroke-miterlimit:10;stroke-dasharray:none;stroke-opacity:1"
         d="M 0,0 V -43.265 L -43.263,-0.002 0,43.265 Z" /></g><g
       transform="translate(478.3595,468.0874)"
       id="g106"><path
         id="path108"
         style="fill:none;stroke:#c1343e;stroke-width:1;stroke-linecap:butt;stroke-linejoin:bevel;stroke-miterlimit:10;stroke-dasharray:none;stroke-opacity:1"
         d="M 0,0 V 43.265 L 43.263,0.001 0,-43.265 Z" /></g><g
       transform="translate(435.0793,424.8315)"
       id="g110"><path
         id="path112"
         style="fill:none;stroke:#c1343e;stroke-width:1;stroke-linecap:butt;stroke-linejoin:miter;stroke-miterlimit:10;stroke-dasharray:none;stroke-opacity:1"
         d="M 0,0 H 43.265 L 0.002,-43.263 -43.265,0 Z" /></g><g
       transform="translate(305.2834,381.6001)"
       id="g114"><path
         id="path116"
         style="fill:none;stroke:#c1343e;stroke-width:1;stroke-linecap:butt;stroke-linejoin:miter;stroke-miterlimit:10;stroke-dasharray:none;stroke-opacity:1"
         d="M 0,0 V 43.265 L 43.263,0.002 0,-43.265 Z" /></g><g
       transform="translate(608.0051,511.3652)"
       id="g118"><path
         id="path120"
         style="fill:none;stroke:#c1343e;stroke-width:1;stroke-linecap:butt;stroke-linejoin:miter;stroke-miterlimit:10;stroke-dasharray:none;stroke-opacity:1"
         d="M 0,0 H 43.265 L 0.001,-43.263 -43.265,0 Z" /></g><g
       transform="translate(305.2804,468.1313)"
       id="g122"><path
         id="path124"
         style="fill:none;stroke:#c1343e;stroke-width:1;stroke-linecap:butt;stroke-linejoin:miter;stroke-miterlimit:10;stroke-dasharray:none;stroke-opacity:1"
         d="M 0,0 V -43.265 L -43.263,-0.001 0,43.265 Z" /></g><g
       transform="translate(348.5465,597.8179)"
       id="g126"><path
         id="path128"
         style="fill:none;stroke:#c1343e;stroke-width:1;stroke-linecap:butt;stroke-linejoin:miter;stroke-miterlimit:10;stroke-dasharray:none;stroke-opacity:1"
         d="M 0,0 V -43.265 L -43.263,-0.001 0,43.265 Z" /></g><g
       transform="translate(305.2804,295.0737)"
       id="g130"><path
         id="path132"
         style="fill:none;stroke:#c1343e;stroke-width:1;stroke-linecap:butt;stroke-linejoin:miter;stroke-miterlimit:10;stroke-dasharray:none;stroke-opacity:1"
         d="M 0,0 V -43.265 L -43.263,-0.001 0,43.265 Z" /></g><g
       transform="translate(521.7023,338.4428)"
       id="g134"><path
         id="path136"
         style="fill:none;stroke:#c1343e;stroke-width:1;stroke-linecap:butt;stroke-linejoin:bevel;stroke-miterlimit:10;stroke-dasharray:none;stroke-opacity:1"
         d="M 0,0 V 43.265 L 43.263,0.002 0,-43.265 Z" /></g><g
       transform="translate(608.0041,338.4018)"
       id="g138"><path
         id="path140"
         style="fill:none;stroke:#c1343e;stroke-width:1;stroke-linecap:butt;stroke-linejoin:miter;stroke-miterlimit:10;stroke-dasharray:none;stroke-opacity:1"
         d="M 0,0 H -43.265 L -0.001,43.263 43.265,0 Z" /></g><g
       transform="translate(694.5334,424.8857)"
       id="g142"><path
         id="path144"
         style="fill:none;stroke:#c1343e;stroke-width:1;stroke-linecap:butt;stroke-linejoin:bevel;stroke-miterlimit:10;stroke-dasharray:none;stroke-opacity:1"
         d="M 0,0 V -43.265 L -43.263,-0.001 0,43.265 Z" /></g><g
       transform="translate(564.8879,381.6645)"
       id="g146"><path
         id="path148"
         style="fill:none;stroke:#c1343e;stroke-width:1;stroke-linecap:butt;stroke-linejoin:miter;stroke-miterlimit:10;stroke-dasharray:none;stroke-opacity:1"
         d="M 0,0 H -43.265 L -0.001,43.264 43.265,0 Z" /></g><g
       transform="translate(564.7394,295.1333)"
       id="g150"><path
         id="path152"
         style="fill:none;stroke:#c1343e;stroke-width:1;stroke-linecap:butt;stroke-linejoin:miter;stroke-miterlimit:10;stroke-dasharray:none;stroke-opacity:1"
         d="M 0,0 V -43.265 L -43.264,-0.001 0,43.266 Z" /></g><g
       transform="translate(608.1359,424.8217)"
       id="g154"><path
         id="path156"
         style="fill:none;stroke:#c1343e;stroke-width:1;stroke-linecap:butt;stroke-linejoin:miter;stroke-miterlimit:10;stroke-dasharray:none;stroke-opacity:1"
         d="M 0,0 V 43.265 L 43.264,0.001 0,-43.265 Z" /></g><g
       transform="translate(564.8879,381.6645)"
       id="g158"><path
         id="path160"
         style="fill:none;stroke:#c1343e;stroke-width:1;stroke-linecap:butt;stroke-linejoin:miter;stroke-miterlimit:10;stroke-dasharray:none;stroke-opacity:1"
         d="M 0,0 H 43.265 L 0.002,-43.263 -43.265,0 Z" /></g><g
       transform="translate(175.6139,251.9028)"
       id="g162"><path
         id="path164"
         style="fill:none;stroke:#c1343e;stroke-width:1;stroke-linecap:butt;stroke-linejoin:bevel;stroke-miterlimit:10;stroke-dasharray:none;stroke-opacity:1"
         d="M 0,0 V 43.265 L 43.263,0.001 0,-43.265 Z" /></g><g
       transform="translate(218.9196,208.6733)"
       id="g166"><path
         id="path168"
         style="fill:none;stroke:#c1343e;stroke-width:1;stroke-linecap:butt;stroke-linejoin:miter;stroke-miterlimit:10;stroke-dasharray:none;stroke-opacity:1"
         d="M 0,0 H 43.265 L 0.002,-43.264 -43.265,0 Z" /></g><g
       transform="translate(218.8786,295.0708)"
       id="g170"><path
         id="path172"
         style="fill:none;stroke:#c1343e;stroke-width:1;stroke-linecap:butt;stroke-linejoin:bevel;stroke-miterlimit:10;stroke-dasharray:none;stroke-opacity:1"
         d="M 0,0 H 43.265 L 0.001,-43.264 -43.265,0 Z" /></g><g
       transform="translate(132.4132,208.6733)"
       id="g174"><path
         id="path176"
         style="fill:none;stroke:#c1343e;stroke-width:1;stroke-linecap:butt;stroke-linejoin:miter;stroke-miterlimit:10;stroke-dasharray:none;stroke-opacity:1"
         d="M 0,0 H 43.265 L 0.001,-43.264 -43.265,0 Z" /></g><g
       transform="translate(175.6125,251.9966)"
       id="g178"><path
         id="path180"
         style="fill:none;stroke:#c1343e;stroke-width:1;stroke-linecap:butt;stroke-linejoin:miter;stroke-miterlimit:10;stroke-dasharray:none;stroke-opacity:1"
         d="M 0,0 V -43.265 L -43.263,-0.002 0,43.265 Z" /></g><g
       transform="translate(218.943,208.6733)"
       id="g182"><path
         id="path184"
         style="fill:none;stroke:#c1343e;stroke-width:1;stroke-linecap:butt;stroke-linejoin:miter;stroke-miterlimit:10;stroke-dasharray:none;stroke-opacity:1"
         d="M 0,0 H -43.265 L -0.001,43.264 43.265,0 Z" /></g><g
       transform="translate(175.6007,338.3354)"
       id="g186"><path
         id="path188"
         style="fill:none;stroke:#c1343e;stroke-width:1;stroke-linecap:butt;stroke-linejoin:miter;stroke-miterlimit:10;stroke-dasharray:none;stroke-opacity:1"
         d="M 0,0 V 43.265 L 43.263,0.002 0,-43.265 Z" /></g><g
       transform="translate(478.3556,122.0952)"
       id="g190"><path
         id="path192"
         style="fill:none;stroke:#c1343e;stroke-width:1;stroke-linecap:butt;stroke-linejoin:bevel;stroke-miterlimit:10;stroke-dasharray:none;stroke-opacity:1"
         d="M 0,0 V 43.265 L 43.264,0.002 0,-43.265 Z" /></g><g
       transform="translate(478.3136,208.7212)"
       id="g194"><path
         id="path196"
         style="fill:none;stroke:#c1343e;stroke-width:1;stroke-linecap:butt;stroke-linejoin:miter;stroke-miterlimit:10;stroke-dasharray:none;stroke-opacity:1"
         d="M 0,0 H 43.265 L 0.001,-43.263 -43.265,0 Z" /></g><g
       transform="translate(435.133,251.9878)"
       id="g198"><path
         id="path200"
         style="fill:none;stroke:#c1343e;stroke-width:1;stroke-linecap:butt;stroke-linejoin:miter;stroke-miterlimit:10;stroke-dasharray:none;stroke-opacity:1"
         d="M 0,0 V 43.265 L 43.264,0.002 0,-43.265 Z" /></g><g
       transform="translate(521.5783,165.4565)"
       id="g202"><path
         id="path204"
         style="fill:none;stroke:#c1343e;stroke-width:1;stroke-linecap:butt;stroke-linejoin:miter;stroke-miterlimit:10;stroke-dasharray:none;stroke-opacity:1"
         d="M 0,0 V -43.265 L -43.264,-0.001 0,43.265 Z" /></g><g
       transform="translate(435.1339,165.2944)"
       id="g206"><path
         id="path208"
         style="fill:none;stroke:#c1343e;stroke-width:1;stroke-linecap:butt;stroke-linejoin:miter;stroke-miterlimit:10;stroke-dasharray:none;stroke-opacity:1"
         d="M 0,0 H 43.265 L 0.001,-43.263 -43.265,0 Z" /></g><g
       transform="translate(478.3986,208.7251)"
       id="g210"><path
         id="path212"
         style="fill:none;stroke:#c1343e;stroke-width:1;stroke-linecap:butt;stroke-linejoin:miter;stroke-miterlimit:10;stroke-dasharray:none;stroke-opacity:1"
         d="M 0,0 H -43.266 L -0.002,43.263 43.265,0 Z" /></g><g
       transform="translate(89.2116,684.3774)"
       id="g214"><path
         id="path216"
         style="fill:none;stroke:#c1343e;stroke-width:1;stroke-linecap:butt;stroke-linejoin:bevel;stroke-miterlimit:10;stroke-dasharray:none;stroke-opacity:1"
         d="M 0,0 V 43.265 L 43.263,0.001 0,-43.265 Z" /></g><g
       transform="translate(175.7379,684.3774)"
       id="g218"><path
         id="path220"
         style="fill:none;stroke:#c1343e;stroke-width:1;stroke-linecap:butt;stroke-linejoin:bevel;stroke-miterlimit:10;stroke-dasharray:none;stroke-opacity:1"
         d="M 0,0 V -43.265 L -43.263,-0.001 0,43.265 Z" /></g><g
       transform="translate(45.9484,641.0947)"
       id="g222"><path
         id="path224"
         style="fill:none;stroke:#c1343e;stroke-width:1;stroke-linecap:butt;stroke-linejoin:miter;stroke-miterlimit:10;stroke-dasharray:none;stroke-opacity:1"
         d="M 0,0 V 43.265 L 43.263,0.001 0,-43.265 Z" /></g><g
       transform="translate(175.7379,597.8491)"
       id="g226"><path
         id="path228"
         style="fill:none;stroke:#c1343e;stroke-width:1;stroke-linecap:butt;stroke-linejoin:miter;stroke-miterlimit:10;stroke-dasharray:none;stroke-opacity:1"
         d="M 0,0 H -43.265 L -0.001,43.264 43.265,0 Z" /></g><g
       transform="translate(175.7379,684.3774)"
       id="g230"><path
         id="path232"
         style="fill:none;stroke:#c1343e;stroke-width:1;stroke-linecap:butt;stroke-linejoin:miter;stroke-miterlimit:10;stroke-dasharray:none;stroke-opacity:1"
         d="M 0,0 V 43.265 L 43.263,0.001 0,-43.265 Z" /></g><g
       transform="translate(132.4748,727.6421)"
       id="g234"><path
         id="path236"
         style="fill:none;stroke:#c1343e;stroke-width:1;stroke-linecap:butt;stroke-linejoin:miter;stroke-miterlimit:10;stroke-dasharray:none;stroke-opacity:1"
         d="M 0,0 V -43.265 L -43.263,-0.001 0,43.265 Z" /></g><g
       transform="translate(521.7424,597.9458)"
       id="g238"><path
         id="path240"
         style="fill:none;stroke:#c1343e;stroke-width:1;stroke-linecap:butt;stroke-linejoin:bevel;stroke-miterlimit:10;stroke-dasharray:none;stroke-opacity:1"
         d="M 0,0 V -43.265 L -43.264,-0.001 0,43.265 Z" /></g><g
       transform="translate(608.1867,597.9443)"
       id="g242"><path
         id="path244"
         style="fill:none;stroke:#c1343e;stroke-width:1;stroke-linecap:butt;stroke-linejoin:bevel;stroke-miterlimit:10;stroke-dasharray:none;stroke-opacity:1"
         d="M 0,0 H -43.265 L -0.002,43.264 43.265,0 Z" /></g><g
       transform="translate(521.7844,684.3789)"
       id="g246"><path
         id="path248"
         style="fill:none;stroke:#c1343e;stroke-width:1;stroke-linecap:butt;stroke-linejoin:miter;stroke-miterlimit:10;stroke-dasharray:none;stroke-opacity:1"
         d="M 0,0 H 43.265 L 0.002,-43.263 -43.265,0 Z" /></g><g
       transform="translate(608.2277,684.2466)"
       id="g250"><path
         id="path252"
         style="fill:none;stroke:#c1343e;stroke-width:1;stroke-linecap:butt;stroke-linejoin:miter;stroke-miterlimit:10;stroke-dasharray:none;stroke-opacity:1"
         d="M 0,0 V -43.265 L -43.263,-0.001 0,43.265 Z" /></g><g
       transform="translate(564.965,641.1304)"
       id="g254"><path
         id="path256"
         style="fill:none;stroke:#c1343e;stroke-width:1;stroke-linecap:butt;stroke-linejoin:miter;stroke-miterlimit:10;stroke-dasharray:none;stroke-opacity:1"
         d="M 0,0 V -43.265 L -43.264,-0.001 0,43.265 Z" /></g><g
       transform="translate(521.8078,684.3789)"
       id="g258"><path
         id="path260"
         style="fill:none;stroke:#c1343e;stroke-width:1;stroke-linecap:butt;stroke-linejoin:miter;stroke-miterlimit:10;stroke-dasharray:none;stroke-opacity:1"
         d="M 0,0 H -43.265 L -0.001,43.263 43.265,0 Z" /></g><g
       transform="translate(564.9641,641.1304)"
       id="g262"><path
         id="path264"
         style="fill:none;stroke:#c1343e;stroke-width:1;stroke-linecap:butt;stroke-linejoin:miter;stroke-miterlimit:10;stroke-dasharray:none;stroke-opacity:1"
         d="M 0,0 V 43.265 L 43.264,0.001 0,-43.265 Z" /></g><g
       transform="translate(174.2829,424.8896)"
       id="g266"><path
         id="path268"
         style="fill:none;stroke:#c1343e;stroke-width:1;stroke-linecap:butt;stroke-linejoin:miter;stroke-miterlimit:10;stroke-dasharray:none;stroke-opacity:1"
         d="M 0,0 V 43.265 L 43.263,0.001 0,-43.265 Z" /></g><g
       transform="translate(131.0163,381.7094)"
       id="g270"><path
         id="path272"
         style="fill:none;stroke:#c1343e;stroke-width:1;stroke-linecap:butt;stroke-linejoin:miter;stroke-miterlimit:10;stroke-dasharray:none;stroke-opacity:1"
         d="M 0,0 H -43.265 L -0.001,43.264 43.265,0 Z" /></g><g
       transform="translate(131.0163,511.3945)"
       id="g274"><path
         id="path276"
         style="fill:none;stroke:#c1343e;stroke-width:1;stroke-linecap:butt;stroke-linejoin:miter;stroke-miterlimit:10;stroke-dasharray:none;stroke-opacity:1"
         d="M 0,0 H 43.265 L 0.001,-43.263 -43.265,0 Z" /></g><g
       transform="translate(737.841,295.1714)"
       id="g278"><path
         id="path280"
         style="fill:none;stroke:#c1343e;stroke-width:1;stroke-linecap:butt;stroke-linejoin:bevel;stroke-miterlimit:10;stroke-dasharray:none;stroke-opacity:1"
         d="M 0,0 H -43.265 L -0.001,43.263 43.265,0 Z" /></g><g
       transform="translate(694.673,338.436)"
       id="g282"><path
         id="path284"
         style="fill:none;stroke:#c1343e;stroke-width:1;stroke-linecap:butt;stroke-linejoin:bevel;stroke-miterlimit:10;stroke-dasharray:none;stroke-opacity:1"
         d="M 0,0 V 43.265 L 43.264,0.001 0,-43.265 Z" /></g><g
       transform="translate(737.7473,295.1694)"
       id="g286"><path
         id="path288"
         style="fill:none;stroke:#c1343e;stroke-width:1;stroke-linecap:butt;stroke-linejoin:miter;stroke-miterlimit:10;stroke-dasharray:none;stroke-opacity:1"
         d="M 0,0 H 43.265 L 0.002,-43.263 -43.265,0 Z" /></g><g
       transform="translate(651.4084,295.1577)"
       id="g290"><path
         id="path292"
         style="fill:none;stroke:#c1343e;stroke-width:1;stroke-linecap:butt;stroke-linejoin:miter;stroke-miterlimit:10;stroke-dasharray:none;stroke-opacity:1"
         d="M 0,0 H -43.265 L -0.002,43.264 43.265,0 Z" /></g><g
       transform="translate(651.2267,208.5786)"
       id="g294"><path
         id="path296"
         style="fill:none;stroke:#c1343e;stroke-width:1;stroke-linecap:butt;stroke-linejoin:bevel;stroke-miterlimit:10;stroke-dasharray:none;stroke-opacity:1"
         d="M 0,0 H 43.265 L 0.001,-43.263 -43.265,0 Z" /></g><g
       transform="translate(737.6281,122.145)"
       id="g298"><path
         id="path300"
         style="fill:none;stroke:#c1343e;stroke-width:1;stroke-linecap:butt;stroke-linejoin:miter;stroke-miterlimit:10;stroke-dasharray:none;stroke-opacity:1"
         d="M 0,0 H -43.265 L -0.001,43.263 43.266,0 Z" /></g><g
       transform="translate(651.1857,122.2768)"
       id="g302"><path
         id="path304"
         style="fill:none;stroke:#c1343e;stroke-width:1;stroke-linecap:butt;stroke-linejoin:miter;stroke-miterlimit:10;stroke-dasharray:none;stroke-opacity:1"
         d="M 0,0 V 43.265 L 43.263,0.001 0,-43.265 Z" /></g><g
       transform="translate(694.4484,684.3955)"
       id="g306"><path
         id="path308"
         style="fill:none;stroke:#c1343e;stroke-width:1;stroke-linecap:butt;stroke-linejoin:miter;stroke-miterlimit:10;stroke-dasharray:none;stroke-opacity:1"
         d="M 0,0 V 43.265 L 43.264,0.001 0,-43.265 Z" /></g><g
       transform="translate(694.4484,165.3931)"
       id="g310"><path
         id="path312"
         style="fill:none;stroke:#c1343e;stroke-width:1;stroke-linecap:butt;stroke-linejoin:miter;stroke-miterlimit:10;stroke-dasharray:none;stroke-opacity:1"
         d="M 0,0 V -43.265 L -43.263,-0.002 0,43.265 Z" /></g></g></svg>